<?xml version="1.0" standalone="no"?><!DOCTYPE svg PUBLIC "-//W3C//DTD SVG 1.1//EN" "http://www.w3.org/Graphics/SVG/1.1/DTD/svg11.dtd"><svg t="1538278506381" class="icon" style="" viewBox="0 0 1024 1024" version="1.1" xmlns="http://www.w3.org/2000/svg" p-id="4807" xmlns:xlink="http://www.w3.org/1999/xlink" width="32" height="32"><defs><style type="text/css"></style></defs><path d="M810.666667 341.333333 213.333333 341.333333c-72.533333 0-128 55.466667-128 128l0 256 170.666667 0 0 170.666667 512 0 0-170.666667 170.666667 0 0-256C938.666667 396.8 883.2 341.333333 810.666667 341.333333zM682.666667 810.666667 341.333333 810.666667l0-213.333333 341.333333 0L682.666667 810.666667zM810.666667 512c-25.6 0-42.666667-17.066667-42.666667-42.666667s17.066667-42.666667 42.666667-42.666667c25.6 0 42.666667 17.066667 42.666667 42.666667S836.266667 512 810.666667 512zM768 128 256 128l0 170.666667 512 0L768 128z" p-id="4808" fill="#666666"></path></svg>