<?xml version="1.0" standalone="no"?><!DOCTYPE svg PUBLIC "-//W3C//DTD SVG 1.1//EN" "http://www.w3.org/Graphics/SVG/1.1/DTD/svg11.dtd"><svg t="1508743252884" class="icon" style="" viewBox="0 0 1024 1024" version="1.1" xmlns="http://www.w3.org/2000/svg" p-id="1003" xmlns:xlink="http://www.w3.org/1999/xlink" width="200" height="200"><defs><style type="text/css"></style></defs><path d="M0.020978 1023.894599h255.973905V767.920694H0.020978v255.973905z m63.993476-191.980429h127.986953v127.986953H64.014454V831.91417z m959.902147-831.91417H767.941672v255.973906h256.036327l-0.061398-255.973906z m-63.993477 191.980429H831.935148V63.993476h127.986953v127.986953z m0 511.946788V319.967382H831.935148v383.959835h127.987976z m-639.934764-511.946788h383.959835V63.993476H319.98836v127.986953zM64.014454 319.967382v383.959835h127.986953V319.967382H64.014454z m255.973906 639.933741h383.959835V831.91417H319.98836v127.986953z m447.953312-191.980429v255.974929h256.036327l-0.062422-255.974929H767.941672z m191.981452 191.980429H831.935148V831.91417h127.986953v127.986953zM0.020978 255.973906h255.973905V0H0.020978v255.973906zM64.014454 63.993476h127.986953v127.986953H64.014454V63.993476z" p-id="1004" fill="#66ccff"></path></svg>