<?xml version="1.0" standalone="no"?><!DOCTYPE svg PUBLIC "-//W3C//DTD SVG 1.1//EN" "http://www.w3.org/Graphics/SVG/1.1/DTD/svg11.dtd"><svg t="1493777729072" class="icon" style="" viewBox="0 0 1024 1024" version="1.1" xmlns="http://www.w3.org/2000/svg" p-id="2969" xmlns:xlink="http://www.w3.org/1999/xlink" width="600" height="600"><defs><style type="text/css"></style></defs><path d="M243.80928 163.31264h376.54016v135.59808a16.256 16.256 0 0 0 16.256 16.25088h143.5904v98.69824h47.86688V300.54912c0-0.60416-0.09728-1.2032-0.16896-1.81248-0.03584-3.8144-1.24416-7.55712-3.86048-10.52672l-175.18592-167.21408c-0.0512-0.04608-0.1024-0.06656-0.128-0.11264a16.01024 16.01024 0 0 0-3.23584-2.7136c-0.34816-0.23552-0.70144-0.43008-1.06496-0.63488a16.82944 16.82944 0 0 0-3.21024-1.34656c-0.30208-0.08192-0.56832-0.2048-0.8704-0.28672a16.09216 16.09216 0 0 0-3.73248-0.4608H228.44928a32.54272 32.54272 0 0 0-32.512 32.50688v265.92256h47.872V163.31264zM780.19584 851.87584H243.80928v-133.2224h-47.872v157.39904c0 17.92 14.57664 32.50688 32.512 32.50688h567.10656c17.92 0 32.50688-14.58688 32.50688-32.50688v-157.39904h-47.86688v133.2224z" fill="#4E8CEE" p-id="2970"></path><path d="M848.34304 413.86496H175.65184c-28.27264 0-51.2 22.92224-51.2 51.2v202.38848c0 28.27264 22.92736 51.2 51.2 51.2h672.69632c28.27264 0 51.2-22.92736 51.2-51.2V465.06496c-0.00512-28.27264-22.92736-51.2-51.20512-51.2z m-478.01856 251.38688H312.01792V466.2784h58.30144v198.97344z m333.67552 0h-54.1696v-156.6208l-57.31328 156.6208h-56.13568l-57.12384-156.6208v156.6208H425.08288V466.2784h87.25504l52.39296 135.72608 51.80928-135.72608H704v198.97344z" fill="#BAD4FF" p-id="2971"></path><path d="M312.01792 466.2784h58.30144v198.97344H312.01792zM564.736 602.00448L512.33792 466.2784H425.08288v198.97344h54.17472V508.62592l57.12384 156.62592h56.13568l57.31328-156.62592v156.62592h54.1696V466.2784h-87.45472z" fill="#4E8CEE" p-id="2972"></path></svg>