<?xml version="1.0" standalone="no"?><!DOCTYPE svg PUBLIC "-//W3C//DTD SVG 1.1//EN" "http://www.w3.org/Graphics/SVG/1.1/DTD/svg11.dtd"><svg t="1508166460009" class="icon" style="" viewBox="0 0 1024 1024" version="1.1" xmlns="http://www.w3.org/2000/svg" p-id="6190" xmlns:xlink="http://www.w3.org/1999/xlink" width="200" height="200"><defs><style type="text/css"></style></defs><path d="M255.862877 639.666658h511.684822v63.960731H255.862877zM255.862877 767.588119h511.684822v63.960731H255.862877zM703.586968 127.981836H319.823608v319.803653h383.76336v-319.803653z m-42.97886 276.82377H362.802468v-233.845933h297.80564v233.845933z" p-id="6191" fill="#66CCFF"></path><path d="M831.508429 127.981836h-63.96073v383.763361H255.862877V127.981836H217.476615c-84.773755 0-153.49593 68.722174-153.49593 153.49593v524.496615c0 84.773755 68.722174 153.49593 153.49593 153.49593h588.457346c84.773755 0 153.49593-68.722174 153.49593-153.49593V255.902274L831.508429 127.981836z m84.942601 677.991522c0 29.520337-11.495822 57.273425-32.370245 78.146825s-48.627511 32.370245-78.146824 32.370244H217.476615c-29.520337 0-57.273425-11.495822-78.147848-32.370244s-32.369222-48.627511-32.369222-78.146825v-524.495592c0-29.520337 11.495822-57.273425 32.369222-78.147848 19.788695-19.787672 45.757137-31.148417 73.554226-32.277124v383.671263h597.642543V170.960697h3.178389l102.745059 102.745058v532.267603z" p-id="6192" fill="#66CCFF"></path><path d="M639.627261 191.942567H511.705799V383.824759h127.921462V191.942567z m-42.978861 148.902308h-41.96374V234.921427h41.96374v105.923448z" p-id="6193" fill="#66CCFF"></path></svg>