<?xml version="1.0" standalone="no"?><!DOCTYPE svg PUBLIC "-//W3C//DTD SVG 1.1//EN" "http://www.w3.org/Graphics/SVG/1.1/DTD/svg11.dtd"><svg t="1508166489946" class="icon" style="" viewBox="0 0 1024 1024" version="1.1" xmlns="http://www.w3.org/2000/svg" p-id="6762" xmlns:xlink="http://www.w3.org/1999/xlink" width="200" height="200"><defs><style type="text/css"></style></defs><path d="M42.666667 14.222222l0 292.977778 938.666667 0L981.333333 14.222222 42.666667 14.222222zM925.866667 248.888889 98.133333 248.888889 98.133333 72.533333l827.733333 0L925.866667 248.888889z" p-id="6763" fill="#66CCFF"></path><path d="M42.666667 365.511111l0 292.977778 938.666667 0L981.333333 365.511111 42.666667 365.511111zM925.866667 600.177778 98.133333 600.177778 98.133333 423.822222l827.733333 0L925.866667 600.177778z" p-id="6764" fill="#66CCFF"></path><path d="M42.666667 716.8 42.666667 1009.777778l938.666667 0L981.333333 716.8 42.666667 716.8zM925.866667 951.466667 98.133333 951.466667 98.133333 775.111111l827.733333 0L925.866667 951.466667z" p-id="6765" fill="#66CCFF"></path><path d="M716.8 190.577778 776.533333 190.577778 804.977778 190.577778 804.977778 130.844444 776.533333 130.844444 716.8 130.844444 688.355556 130.844444 688.355556 190.577778Z" p-id="6766" fill="#66CCFF"></path><path d="M716.8 541.866667 776.533333 541.866667 804.977778 541.866667 804.977778 482.133333 776.533333 482.133333 716.8 482.133333 688.355556 482.133333 688.355556 541.866667Z" p-id="6767" fill="#66CCFF"></path><path d="M716.8 893.155556 776.533333 893.155556 804.977778 893.155556 804.977778 833.422222 776.533333 833.422222 716.8 833.422222 688.355556 833.422222 688.355556 893.155556Z" p-id="6768" fill="#66CCFF"></path></svg>