<?xml version="1.0" standalone="no"?><!DOCTYPE svg PUBLIC "-//W3C//DTD SVG 1.1//EN" "http://www.w3.org/Graphics/SVG/1.1/DTD/svg11.dtd"><svg t="1511447999654" class="icon" style="" viewBox="0 0 1024 1024" version="1.1" xmlns="http://www.w3.org/2000/svg" p-id="4876" xmlns:xlink="http://www.w3.org/1999/xlink" width="200" height="200"><defs><style type="text/css"></style></defs><path d="M754.176 0h-484.352c-42.496 0-76.8 34.304-76.8 76.8V1024h638.464V76.8c-0.512-42.496-34.816-76.8-77.312-76.8z m-480.768 179.2h476.672v79.872h-476.672V179.2z m0 151.552h476.672v79.872h-476.672v-79.872z m126.976 349.696V699.904c-0.512 30.208-16.384 48.64-45.568 54.272-8.704 1.536-17.408 2.56-26.112 2.56-8.192 0-16.384-0.512-24.064-2.048-30.72-5.12-47.104-23.552-47.616-55.296-0.512-13.312-0.512-26.112 0-38.912v-24.064c0-1.536 0-5.632 3.072-8.704 2.048-2.048 4.608-3.072 7.68-3.072h22.016v71.68c0 16.896 6.144 23.552 22.016 25.6 5.632 0.512 11.776 1.024 17.92 1.024 5.632 0 10.752-0.512 16.384-1.024 15.36-1.536 21.504-8.704 22.016-25.088v-17.92-4.608-17.408V624.64h32.768v13.824c-0.512 10.752-0.512 27.648-0.512 41.984zM545.28 737.28v1.536c0 5.12 0 13.312-8.704 17.408-2.048 1.024-4.096 1.536-6.656 1.536-6.144 0-10.752-3.584-14.848-7.68l-57.344-57.344-10.24-10.24v61.44c0 2.56-0.512 6.656-3.072 9.728-3.072 3.072-7.68 3.072-9.216 3.072h-6.656c-5.12 0-8.704 0-11.264-3.072-2.56-2.56-2.56-6.144-2.56-10.752V737.28c-0.512-21.504 0-43.008 0-64.512v-24.576-7.168c1.024-11.264 8.192-15.872 14.848-15.872 3.584 0 7.168 1.536 10.752 4.096 5.632 4.096 10.24 8.704 14.848 13.312l3.072 3.072c16.384 16.384 39.936 39.424 53.248 52.736V625.152h23.552c3.072 0 5.632 1.024 7.168 3.072 2.56 3.072 2.56 6.144 2.56 8.704v80.384c0.512 6.656 0.512 13.312 0.512 19.968z m49.152 16.384c-3.072 3.072-7.168 3.072-8.704 3.072H578.56c-5.12 0-8.704 0-11.264-3.072-3.072-3.072-2.56-6.656-2.56-12.288v-5.632-97.28c0-8.192 1.024-14.336 12.288-14.336h6.144c6.144 0 9.728 0 12.288 3.072 2.56 2.56 2.56 6.144 2.56 10.752v105.472c-0.512 3.584-1.024 7.168-3.584 10.24z m150.528 3.072h-12.288c-4.096 0-6.656-2.56-8.704-4.608-10.24-9.728-28.672-26.112-36.864-33.792-5.632 5.632-15.872 16.384-24.064 24.576-2.56 2.56-4.608 5.12-7.168 7.68-4.608 4.608-9.216 7.168-15.36 7.168h-36.864l13.824-14.848c3.072-3.072 5.632-6.144 8.192-9.216 12.8-13.312 25.6-26.624 38.4-39.424 0.512-1.024 1.536-1.536 2.048-2.048-0.512-0.512-1.536-1.536-2.048-2.56-15.36-15.872-30.208-31.744-45.568-47.104l-1.536-1.536c-0.512-0.512-1.024-1.024-1.536-2.048l-11.264-12.8h40.96c4.096 0 7.168 3.072 9.216 5.12l8.192 8.192c8.704 8.704 20.992 20.992 27.136 27.648 5.12-5.12 13.312-13.312 20.48-20.992 4.608-4.608 9.216-9.216 13.824-14.336 4.096-4.096 8.704-6.144 14.336-6.144h25.6l3.072 9.216-1.024 1.024-6.144 6.144c-6.144 6.656-15.872 16.896-25.088 26.112l-1.536 1.536c-4.608 5.12-9.728 9.728-14.336 14.848-2.56 3.072-5.12 5.12-6.656 6.656l-0.512 0.512s0 0.512 0.512 0.512c12.8 12.8 25.088 26.112 37.888 38.912l10.24 10.752c1.024 1.024 2.048 2.048 3.072 3.584l10.752 12.288-29.184-1.024z" fill="#66ccff" p-id="4877" class="selected"></path></svg>