<?xml version="1.0" standalone="no"?><!DOCTYPE svg PUBLIC "-//W3C//DTD SVG 1.1//EN" "http://www.w3.org/Graphics/SVG/1.1/DTD/svg11.dtd"><svg t="1512025866449" class="icon" style="" viewBox="0 0 1024 1024" version="1.1" xmlns="http://www.w3.org/2000/svg" p-id="1196" xmlns:xlink="http://www.w3.org/1999/xlink" width="200" height="200"><defs><style type="text/css"></style></defs><path d="M768 0 256 0c-35.376 0-64 28.624-64 64l0 896c0 35.376 28.624 64 64 64l512 0c35.376 0 64-28.624 64-64L832 64C832 28.624 803.376 0 768 0zM800 960c0 17.664-14.336 32-32 32L256 992c-17.664 0-32-14.336-32-32L224 608l576 0L800 960zM800 576 224 576 224 416l576 0L800 576zM800 384 224 384 224 224l576 0L800 384zM800 192 224 192 224 64c0-17.664 14.336-32 32-32l512 0c17.664 0 32 14.336 32 32L800 192z" p-id="1197" class="selected" fill="#66ccff"></path><path d="M688 96 336 96c-8.848 0-16 7.152-16 16s7.152 16 16 16l352 0c8.848 0 16-7.152 16-16S696.848 96 688 96z" p-id="1198" class="selected" fill="#66ccff"></path><path d="M336 320l352 0c8.848 0 16-7.152 16-16s-7.152-16-16-16L336 288c-8.848 0-16 7.152-16 16S327.152 320 336 320z" p-id="1199" class="selected" fill="#66ccff"></path><path d="M336 512l352 0c8.848 0 16-7.152 16-16s-7.152-16-16-16L336 480c-8.848 0-16 7.152-16 16S327.152 512 336 512z" p-id="1200" class="selected" fill="#66ccff"></path><path d="M512 928c26.512 0 48-21.504 48-48s-21.488-48-48-48-48 21.504-48 48S485.488 928 512 928zM512 864c8.848 0 16 7.152 16 16s-7.152 16-16 16-16-7.152-16-16S503.152 864 512 864z" p-id="1201" class="selected" fill="#66ccff"></path><path d="M640 928c26.512 0 48-21.504 48-48s-21.488-48-48-48-48 21.504-48 48S613.488 928 640 928zM640 864c8.848 0 16 7.152 16 16s-7.152 16-16 16-16-7.152-16-16S631.152 864 640 864z" p-id="1202" class="selected" fill="#66ccff"></path><path d="M384 928c26.512 0 48-21.504 48-48s-21.488-48-48-48-48 21.504-48 48S357.488 928 384 928zM384 864c8.848 0 16 7.152 16 16s-7.152 16-16 16-16-7.152-16-16S375.152 864 384 864z" p-id="1203" class="selected" fill="#66ccff"></path></svg>