<?xml version="1.0" standalone="no"?><!DOCTYPE svg PUBLIC "-//W3C//DTD SVG 1.1//EN" "http://www.w3.org/Graphics/SVG/1.1/DTD/svg11.dtd"><svg t="1527995628754" class="icon" style="" viewBox="0 0 1031 1024" version="1.1" xmlns="http://www.w3.org/2000/svg" p-id="7603" xmlns:xlink="http://www.w3.org/1999/xlink" width="201.3671875" height="200"><defs><style type="text/css"></style></defs><path d="M250.837186 158.158387h536.428923v97.212002h-536.428923z" fill="#1296db" p-id="7604"></path><path d="M927.291687 378.774225v-295.665519h-823.531726v303.724545h-46.843089v105.774718h46.843089v303.220855h79.079193v149.091983h673.432366v-149.091983h71.523856v-311.279882h46.843089v-105.774717h-47.346778z m-424.106247 530.888343l21.658633-134.484998-77.064437-7.555337s53.894737-143.551402 45.332022-142.040334h61.953763l-30.221348 99.226758 84.116084-26.695524-105.774717 211.549435z m373.737334-379.781604h-715.238563v-403.958682h715.238563v403.958682z" fill="#1296db" p-id="7605"></path><path d="M317.938652 405.399233a19.140187 19.140187 0 0 0-2.044978 1.123226 1.87876 1.87876 0 0 0 1.979499 3.198426c0.543984-0.342509 1.108116-0.649759 1.692395-0.926788a1.873724 1.873724 0 0 0 0.881456-2.503335 1.873724 1.873724 0 0 0-2.508372-0.891529z m0 0" fill="#1296db" p-id="7606"></path><path d="M369.989887 465.444014c-1.767949-0.700128-9.308175-4.296468-9.308175-15.055268v-28.493694c0-13.856488-11.297747-26.640118-25.360748-30.453045v-0.236734a8.461977 8.461977 0 0 0-8.451903-8.45694h-0.095701a8.461977 8.461977 0 0 0-8.451904 8.45694v0.236734c-14.063 3.812927-25.360748 16.596557-25.360748 30.453045v28.493694c0 10.7588-7.540226 14.35514-9.308175 15.055268a3.958997 3.958997 0 0 0 1.793134 7.494894h82.76116a3.964033 3.964033 0 0 0 1.78306-7.494894z m-40.839115-0.020148h-33.57088c2.775327-3.586267 4.885785-8.512346 4.885784-15.03512v-24.177079l0.090664 0.025185v-4.3418c0-12.380679 12.753409-24.086414 26.257315-24.116636 13.498869 0.030221 26.257314 11.735957 26.257314 24.116636v4.3418l0.095701-0.025185v24.177079c0 6.527811 2.115494 11.448854 4.885785 15.03512h-28.901683z m0 0" fill="#1296db" p-id="7607"></path><path d="M312.876576 411.312543a1.888834 1.888834 0 0 0-2.634294 0.37273 20.500148 20.500148 0 0 0-4.135287 12.400826v18.787605a1.873724 1.873724 0 1 0 3.75752 0v-18.787605c0-3.697078 1.173596-7.202755 3.379755-10.144299a1.87876 1.87876 0 0 0-0.367694-2.629257z m26.277462 63.500089h-5.3794a1.208854 1.208854 0 0 0-0.624574 0.236733l-0.075553-0.115848c-0.357619 0.130959-0.659833 0.382804-0.755534 0.770644a5.636281 5.636281 0 0 1-5.354216 4.734678 5.636281 5.636281 0 0 1-5.354215-4.734678c-0.095701-0.387841-0.392878-0.639685-0.760571-0.770644l-0.070516 0.115848a1.193743 1.193743 0 0 0-0.629611-0.236733h-5.374363a1.143374 1.143374 0 0 0-1.057748 0.997304 13.121102 13.121102 0 0 0 13.045549 12.148982l0.196439-0.005037 0.196438 0.005037a13.121102 13.121102 0 0 0 13.045549-12.148982 1.123227 1.123227 0 0 0-1.047674-0.997304z m0 0" fill="#1296db" p-id="7608"></path></svg>