<?xml version="1.0" standalone="no"?><!DOCTYPE svg PUBLIC "-//W3C//DTD SVG 1.1//EN" "http://www.w3.org/Graphics/SVG/1.1/DTD/svg11.dtd"><svg t="1527995598521" class="icon" style="" viewBox="0 0 1024 1024" version="1.1" xmlns="http://www.w3.org/2000/svg" p-id="6800" xmlns:xlink="http://www.w3.org/1999/xlink" width="200" height="200"><defs><style type="text/css"></style></defs><path d="M938.667 373.333a32 32 0 0 0 32-32V256a117.419 117.419 0 0 0-117.334-117.333H170.667A117.419 117.419 0 0 0 53.333 256v512a117.419 117.419 0 0 0 117.334 117.333h682.666A117.419 117.419 0 0 0 970.667 768V512a32 32 0 0 0-64 0v112H117.333V256c0-29.397 23.936-53.333 53.334-53.333h682.666c29.398 0 53.334 23.936 53.334 53.333v85.333c0 17.664 14.336 32 32 32z m-32 314.667v80c0 29.397-23.936 53.333-53.334 53.333H170.667c-29.398 0-53.334-23.936-53.334-53.333v-80h789.334zM778.58 432.341a32 32 0 0 1 0 64h-98.517a32.128 32.128 0 0 1-27.264-15.189l-20.181-32.683-75.008 124.587a31.957 31.957 0 0 1-58.07-7.253l-52.82-174.848-22.23 84.437a31.83 31.83 0 0 1-30.847 23.808H245.419a32 32 0 0 1 0-64H368.98l44.758-170.027a32.085 32.085 0 0 1 30.378-23.85c13.739 0.554 27.094 9.002 31.19 22.741l64.768 214.187 64.896-107.776a31.872 31.872 0 0 1 27.264-15.488h0.17c11.094 0 21.419 5.76 27.264 15.189l38.358 62.165h80.554zM181.333 768a32 32 0 0 1 32-32h85.334a32 32 0 0 1 0 64h-85.334a32 32 0 0 1-32-32z m213.334 0a32 32 0 0 1 32-32H512a32 32 0 0 1 0 64h-85.333a32 32 0 0 1-32-32z m330.666 0a42.667 42.667 0 1 1 85.334 0 42.667 42.667 0 0 1-85.334 0z" p-id="6801" fill="#1296db"></path></svg>