<?xml version="1.0" encoding="iso-8859-1"?>
<!-- Generator: Adobe Illustrator 19.0.0, SVG Export Plug-In . SVG Version: 6.00 Build 0)  -->
<svg version="1.1" id="Capa_1" xmlns="http://www.w3.org/2000/svg" xmlns:xlink="http://www.w3.org/1999/xlink" x="0px" y="0px"
	 viewBox="0 0 512.058 512.058" style="enable-background:new 0 0 512.058 512.058;" xml:space="preserve">
<rect x="240.84" y="23.688" style="fill:#AFB4C8;" width="30.356" height="83.17"/>
<rect x="256.02" y="23.688" style="fill:#9196AA;" width="15.178" height="83.17"/>
<rect x="35.697" y="359.552" transform="matrix(-0.4589 -0.8885 0.8885 -0.4589 -289.1468 641.8493)" style="fill:#AFB4C8;" width="30.356" height="98.841"/>
<rect x="411.762" y="393.802" transform="matrix(-0.8885 -0.4589 0.4589 -0.8885 683.2603 983.9905)" style="fill:#9196AA;" width="98.841" height="30.356"/>
<polygon style="fill:#BF4CD9;" points="271.353,281.362 256.02,488.37 78.101,396.463 78.101,179.981 256.02,249.029 
	433.94,179.981 "/>
<polygon style="fill:#FFE733;" points="433.94,396.463 256.02,488.37 256.02,271.888 433.94,179.981 "/>
<polygon style="fill:#96EBE6;" points="78.101,179.981 256.02,271.888 433.94,179.981 256.02,88.074 "/>
<polygon style="fill:#64E1DC;" points="256.02,271.888 433.94,179.981 256.02,88.074 "/>
<g>
</g>
<g>
</g>
<g>
</g>
<g>
</g>
<g>
</g>
<g>
</g>
<g>
</g>
<g>
</g>
<g>
</g>
<g>
</g>
<g>
</g>
<g>
</g>
<g>
</g>
<g>
</g>
<g>
</g>
</svg>
