<?xml version="1.0" encoding="iso-8859-1"?>
<!-- Generator: Adobe Illustrator 19.0.0, SVG Export Plug-In . SVG Version: 6.00 Build 0)  -->
<svg version="1.1" id="Layer_1" xmlns="http://www.w3.org/2000/svg" xmlns:xlink="http://www.w3.org/1999/xlink" x="0px" y="0px"
	 viewBox="0 0 512 512" style="enable-background:new 0 0 512 512;" xml:space="preserve">
<circle style="fill:#25B7D3;" cx="256" cy="256" r="256"/>
<g>
	<path style="fill:#3E3E3F;" d="M302.545,395.636c0,5.143-4.166,9.309-9.309,9.309h-74.473c-5.143,0-9.309-4.166-9.309-9.309
		V265.309c0-5.143,4.166-9.309,9.309-9.309h74.473c5.143,0,9.309,4.166,9.309,9.309V395.636z"/>
	<path style="fill:#3E3E3F;" d="M404.945,395.636c0,5.143-4.166,9.309-9.309,9.309h-74.473c-5.143,0-9.309-4.166-9.309-9.309
		V265.309c0-5.143,4.166-9.309,9.309-9.309h74.473c5.143,0,9.309,4.166,9.309,9.309V395.636z"/>
	<path style="fill:#3E3E3F;" d="M200.145,395.636c0,5.143-4.166,9.309-9.309,9.309h-74.473c-5.143,0-9.309-4.166-9.309-9.309
		V265.309c0-5.143,4.166-9.309,9.309-9.309h74.473c5.143,0,9.309,4.166,9.309,9.309V395.636z"/>
</g>
<circle style="fill:#FA5655;" cx="179.2" cy="276.945" r="6.982"/>
<circle style="fill:#F99134;" cx="155.927" cy="276.945" r="6.982"/>
<circle style="fill:#FACB1B;" cx="132.655" cy="276.945" r="6.982"/>
<path style="fill:#F0F1F1;" d="M353.745,193.452c0-18.404-11.366-34.127-27.453-40.602c-12.744-31.167-33.336-43.832-58.55-43.832
	c-23.701,0-44.246,13.507-54.319,33.266c-16.026-6.824-34.095,4.51-34.76,22.063c-14.587,5.143-25.065,19.009-25.065,35.361
	c0,20.727,16.803,37.525,37.525,37.525h125.091C316.216,237.238,353.745,230.274,353.745,193.452z"/>
<path style="fill:#FFFFFF;" d="M267.743,109.019c-23.701,0-44.246,13.507-54.319,33.266c-16.026-6.824-34.095,4.51-34.76,22.063
	c-14.587,5.143-25.065,19.009-25.065,35.361c0,19.679,15.16,35.793,34.434,37.371l116.005-116.01
	C293.623,112.756,281.367,109.019,267.743,109.019z"/>
<circle style="fill:#FA5655;" cx="281.6" cy="276.945" r="6.982"/>
<circle style="fill:#F99134;" cx="258.327" cy="276.945" r="6.982"/>
<circle style="fill:#FACB1B;" cx="235.055" cy="276.945" r="6.982"/>
<circle style="fill:#FA5655;" cx="384" cy="276.945" r="6.982"/>
<circle style="fill:#F99134;" cx="360.727" cy="276.945" r="6.982"/>
<circle style="fill:#FACB1B;" cx="337.455" cy="276.945" r="6.982"/>
<g>
	<rect x="107.055" y="372.364" style="fill:#818284;" width="93.091" height="9.309"/>
	<rect x="107.055" y="349.091" style="fill:#818284;" width="93.091" height="9.309"/>
	<rect x="107.055" y="325.818" style="fill:#818284;" width="93.091" height="9.309"/>
	<rect x="107.055" y="302.545" style="fill:#818284;" width="93.091" height="9.309"/>
	<rect x="209.455" y="372.364" style="fill:#818284;" width="93.091" height="9.309"/>
	<rect x="209.455" y="349.091" style="fill:#818284;" width="93.091" height="9.309"/>
	<rect x="209.455" y="325.818" style="fill:#818284;" width="93.091" height="9.309"/>
	<rect x="209.455" y="302.545" style="fill:#818284;" width="93.091" height="9.309"/>
	<rect x="311.855" y="372.364" style="fill:#818284;" width="93.091" height="9.309"/>
	<rect x="311.855" y="349.091" style="fill:#818284;" width="93.091" height="9.309"/>
	<rect x="311.855" y="325.818" style="fill:#818284;" width="93.091" height="9.309"/>
	<rect x="311.855" y="302.545" style="fill:#818284;" width="93.091" height="9.309"/>
</g>
<g>
</g>
<g>
</g>
<g>
</g>
<g>
</g>
<g>
</g>
<g>
</g>
<g>
</g>
<g>
</g>
<g>
</g>
<g>
</g>
<g>
</g>
<g>
</g>
<g>
</g>
<g>
</g>
<g>
</g>
</svg>
