<?xml version="1.0" encoding="iso-8859-1"?>
<!-- Generator: Adobe Illustrator 19.0.0, SVG Export Plug-In . SVG Version: 6.00 Build 0)  -->
<svg version="1.1" id="Capa_1" xmlns="http://www.w3.org/2000/svg" xmlns:xlink="http://www.w3.org/1999/xlink" x="0px" y="0px"
	 viewBox="0 0 512 512" style="enable-background:new 0 0 512 512;" xml:space="preserve">
<polygon style="fill:#FFA426;" points="384,222.94 256,289.06 128,222.94 128,67.197 256,1.076 384,67.197 "/>
<polygon style="fill:#FFBC36;" points="384,222.94 256,289.06 256,133.317 384,67.197 "/>
<polygon style="fill:#FFE733;" points="128,67.197 256,133.317 384,67.197 256,1.076 "/>
<polygon style="fill:#FFDA45;" points="256,133.317 384,67.197 256,1.076 "/>
<polygon style="fill:#A934C4;" points="256,444.803 128,510.924 0,444.803 0,289.06 128,222.94 256,289.06 "/>
<polygon style="fill:#BF4CD9;" points="256,444.803 128,510.924 128,355.181 256,289.06 "/>
<polygon style="fill:#DE78F0;" points="0,289.06 128,355.181 256,289.06 128,222.94 "/>
<polygon style="fill:#D261E8;" points="128,355.181 256,289.06 128,222.94 "/>
<polygon style="fill:#1CADB5;" points="512,444.803 384,510.924 256,444.803 256,289.06 384,222.94 512,289.06 "/>
<polygon style="fill:#00C8C8;" points="512,444.803 384,510.924 384,355.181 512,289.06 "/>
<polygon style="fill:#96EBE6;" points="256,289.06 384,355.181 512,289.06 384,222.94 "/>
<polygon style="fill:#64E1DC;" points="384,355.181 512,289.06 384,222.94 "/>
<g>
</g>
<g>
</g>
<g>
</g>
<g>
</g>
<g>
</g>
<g>
</g>
<g>
</g>
<g>
</g>
<g>
</g>
<g>
</g>
<g>
</g>
<g>
</g>
<g>
</g>
<g>
</g>
<g>
</g>
</svg>
