<?xml version="1.0" encoding="utf-8"?>
<!-- Generator: Adobe Illustrator 15.0.0, SVG Export Plug-In . SVG Version: 6.00 Build 0)  -->
<!DOCTYPE svg PUBLIC "-//W3C//DTD SVG 1.1//EN" "http://www.w3.org/Graphics/SVG/1.1/DTD/svg11.dtd">
<svg version="1.1" id="Layer_1" xmlns="http://www.w3.org/2000/svg" xmlns:xlink="http://www.w3.org/1999/xlink" x="0px" y="0px"
	 width="64px" height="64px" viewBox="0 0 64 64" enable-background="new 0 0 64 64" xml:space="preserve">
<g>
	<g>
		<path fill="#020202" d="M36.857,24.949h10.608l-3.717-3.715l0.515-0.514l4.595,4.593l-4.595,4.594l-0.515-0.517l3.717-3.713
			H36.857V24.949z M20.193,20.72l0.515,0.514l-3.715,3.715H27.6v0.729H16.993l3.715,3.713l-0.515,0.517l-4.594-4.594L20.193,20.72z"
			/>
	</g>
	<g>
		<path fill="#020202" d="M36.189,48.358c-0.247-1.091-1.221-1.913-2.388-1.913h-1.353v-5.138h21.177V12.656H10.373v28.651h21.006
			v5.138h-1.355c-1.165,0-2.141,0.822-2.386,1.913H2.584v1.072h25.054c0.245,1.091,1.221,1.913,2.386,1.913h3.778
			c1.167,0,2.141-0.822,2.388-1.913h25.227v-1.072H36.189z M12.938,36.151V14.889h38.279v21.263H12.938z M33.802,50.271h-3.778
			c-0.76,0-1.379-0.617-1.379-1.377s0.619-1.377,1.379-1.377h3.778c0.762,0,1.379,0.617,1.379,1.377S34.563,50.271,33.802,50.271z"
			/>
	</g>
</g>
</svg>
