<?xml version="1.0" encoding="utf-8"?>
<!-- Generator: Adobe Illustrator 16.0.0, SVG Export Plug-In . SVG Version: 6.00 Build 0)  -->
<!DOCTYPE svg PUBLIC "-//W3C//DTD SVG 1.1//EN" "http://www.w3.org/Graphics/SVG/1.1/DTD/svg11.dtd">
<svg version="1.1" id="Layer_4" xmlns="http://www.w3.org/2000/svg" xmlns:xlink="http://www.w3.org/1999/xlink" x="0px" y="0px"
	 width="100px" height="100px" viewBox="0 0 100 100" enable-background="new 0 0 100 100" xml:space="preserve">
<path d="M86.334,47.444V35.759H13.666v11.686h3.561v5.111h-3.561v11.686h72.668V52.556h-4.108v-5.111H86.334z M26.628,59.454h-5.051
	v-4.941h5.051V59.454z M26.628,52.404h-5.051v-4.941h5.051V52.404z M26.628,45.486h-5.051v-4.941h5.051V45.486z M34.094,59.454
	h-5.051v-4.941h5.051V59.454z M34.094,52.404h-5.051v-4.941h5.051V52.404z M34.094,45.486h-5.051v-4.941h5.051V45.486z
	 M41.452,59.454h-5.051v-4.941h5.051V59.454z M41.452,52.404h-5.051v-4.941h5.051V52.404z M41.452,45.486h-5.051v-4.941h5.051
	V45.486z M48.733,59.454h-5.051v-4.941h5.051V59.454z M48.733,52.404h-5.051v-4.941h5.051V52.404z M48.733,45.486h-5.051v-4.941
	h5.051V45.486z M56.2,59.454h-5.051v-4.941H56.2V59.454z M56.2,52.404h-5.051v-4.941H56.2V52.404z M56.2,45.486h-5.051v-4.941H56.2
	V45.486z M63.558,59.454h-5.05v-4.941h5.05V59.454z M63.558,52.404h-5.05v-4.941h5.05V52.404z M63.558,45.486h-5.05v-4.941h5.05
	V45.486z M74.858,59.312h-6.521v-3.013h6.521V59.312z M71.572,50.854c-2.875,0-5.204-2.33-5.204-5.203s2.329-5.203,5.204-5.203
	s5.204,2.33,5.204,5.203S74.446,50.854,71.572,50.854z M74.858,45.618c0,1.801-1.46,3.261-3.261,3.261
	c-1.8,0-3.261-1.46-3.261-3.261s1.46-3.26,3.261-3.26C73.398,42.358,74.858,43.817,74.858,45.618z"/>
</svg>
