<?xml version="1.0" standalone="no"?><!DOCTYPE svg PUBLIC "-//W3C//DTD SVG 1.1//EN" "http://www.w3.org/Graphics/SVG/1.1/DTD/svg11.dtd"><svg t="1527775051959" class="icon" style="" viewBox="0 0 1024 1024" version="1.1" xmlns="http://www.w3.org/2000/svg" p-id="2274" xmlns:xlink="http://www.w3.org/1999/xlink" width="200" height="200"><defs><style type="text/css"></style></defs><path d="M957.916 472.863c-8.258-91.945-41.647-173.735-100.166-244.95-55.107-67.063-124.264-114.146-206.786-141.31-38.816-12.78-78.706-19.898-119.567-21.527-2.308-0.089-4.603-0.504-6.903-0.77h-25.009c-7.623 0.617-15.24 1.283-22.864 1.838-46.218 3.365-90.757 13.975-133.58 31.547-71.62 29.392-131.703 74.377-180.202 134.7-44.96 55.915-74.873 119.127-88.957 189.414-4.664 23.26-5.981 47.19-8.832 70.812-0.238 1.961-0.504 3.924-0.76 5.886v28.01c0.632 7.433 1.325 14.863 1.89 22.306 3.342 44.16 12.93 86.96 29.725 127.897 50.452 122.971 138.101 208.218 262.124 255.746 40.197 15.4 82.133 23.639 125.158 26.301 85.431 5.289 166.062-11.92 241.328-52.555 73.248-39.543 131.063-95.518 173.5-167.203 25.591-43.23 43.25-89.543 53.038-138.808 8.36-42.095 10.705-84.542 6.863-127.334zM512.174 904.396c-216.483-0.036-392.252-175.906-392.081-392.297 0.175-216.767 175.744-392.206 392.257-391.964 216.554 0.245 391.553 174.66 391.826 391.89 0.275 216.357-174.251 391.643-392.002 392.371z" fill="#bfbfbf" p-id="2275"></path><path d="M649.01 481.078v-0.817L419.092 347.52l-0.342 0.2c-5.379-2.647-11.41-4.173-17.804-4.173-21.388 0-38.854 16.647-40.243 37.684l-0.137 0.084v259.538l0.04 0.023c0.431 21.929 18.308 39.577 40.34 39.577 7.073 0 13.72-1.833 19.5-5.028l0.236 0.133L649.01 543.733v-0.819c8.807-7.415 14.423-18.505 14.423-30.914 0-12.418-5.616-23.505-14.424-30.922z" fill="#bfbfbf" p-id="2276"></path></svg>