<?xml version="1.0" standalone="no"?><!DOCTYPE svg PUBLIC "-//W3C//DTD SVG 1.1//EN" "http://www.w3.org/Graphics/SVG/1.1/DTD/svg11.dtd"><svg t="1527496329519" class="icon" style="" viewBox="0 0 1024 1024" version="1.1" xmlns="http://www.w3.org/2000/svg" p-id="2275" xmlns:xlink="http://www.w3.org/1999/xlink" width="200" height="200"><defs><style type="text/css"></style></defs><path d="M512.000512 233.872538l0-84.319407L360.002702 283.854906l151.997809 134.302799 0-90.710978c111.644753 0 202.153116 90.506317 202.153116 202.153116s-90.508363 202.154139-202.153116 202.154139c-111.646799 0-202.153116-90.50734-202.153116-202.154139 0-26.831089 5.239328-52.435233 14.731516-75.861782l-88.034009-31.943526c-13.08297 33.403784-20.272719 69.7639-20.272719 107.805308 0 163.325809 132.401496 295.728328 295.727305 295.728328 163.326832 0 295.729351-132.402519 295.729351-295.728328C807.727817 366.275058 675.325297 233.872538 512.000512 233.872538z" p-id="2276" fill="#bfbfbf"></path><path d="M509.123998 535.052019m-60.259432 0a58.887 58.887 0 1 0 120.518864 0 58.887 58.887 0 1 0-120.518864 0Z" p-id="2277" fill="#bfbfbf"></path></svg>