<?xml version="1.0" standalone="no"?><!DOCTYPE svg PUBLIC "-//W3C//DTD SVG 1.1//EN" "http://www.w3.org/Graphics/SVG/1.1/DTD/svg11.dtd"><svg t="1529504839472" class="icon" style="" viewBox="0 0 1024 1024" version="1.1" xmlns="http://www.w3.org/2000/svg" p-id="2832" xmlns:xlink="http://www.w3.org/1999/xlink" width="16" height="16"><defs><style type="text/css"></style></defs><path d="M676.631273 767.720727a112.64 112.64 0 0 1 114.827636-0.744727A368.128 368.128 0 0 0 884.363636 602.298182c-35.886545-17.128727-60.834909-52.596364-61.346909-94.021818-0.558545-41.472 23.458909-77.591273 58.926546-95.604364a368.546909 368.546909 0 0 0-90.484364-155.601455 112.64 112.64 0 0 1-114.827636-0.744727 105.285818 105.285818 0 0 1-51.060364-100.072727A395.357091 395.357091 0 0 0 512 139.636364c-39.563636 0-77.684364 5.818182-113.570909 16.570181a105.239273 105.239273 0 0 1-51.060364 100.072728 112.64 112.64 0 0 1-114.827636 0.698182A367.895273 367.895273 0 0 0 139.636364 421.748364c35.886545 17.128727 60.834909 52.596364 61.346909 94.021818 0.558545 41.425455-23.505455 77.591273-58.926546 95.604363a368.314182 368.314182 0 0 0 90.484364 155.601455 112.64 112.64 0 0 1 114.827636 0.744727 105.239273 105.239273 0 0 1 51.060364 100.072728c35.886545 10.705455 74.007273 16.570182 113.570909 16.570181 39.563636 0 77.684364-5.818182 113.570909-16.570181a105.285818 105.285818 0 0 1 51.060364-100.072728zM615.424 512a103.424 103.424 0 1 1-206.848 0 103.424 103.424 0 0 1 206.848 0z" fill="#B2BAC2" p-id="2833"></path></svg>