<?xml version="1.0" standalone="no"?><!DOCTYPE svg PUBLIC "-//W3C//DTD SVG 1.1//EN" "http://www.w3.org/Graphics/SVG/1.1/DTD/svg11.dtd"><svg t="1528268647282" class="icon" style="" viewBox="0 0 1024 1024" version="1.1" xmlns="http://www.w3.org/2000/svg" p-id="1684" xmlns:xlink="http://www.w3.org/1999/xlink" width="200" height="200"><defs><style type="text/css"></style></defs><path d="M924.8 337.6c-22.6-53.4-54.9-101.3-96-142.4s-89-73.4-142.4-96C631.1 75.8 572.5 64 512 64S392.9 75.8 337.6 99.2c-53.4 22.6-101.3 54.9-142.4 96s-73.4 89-96 142.4C75.8 392.9 64 451.5 64 512s11.8 119.1 35.2 174.4c22.6 53.4 54.9 101.3 96 142.4 41.1 41.1 89 73.4 142.4 96C392.9 948.2 451.5 960 512 960s119.1-11.8 174.4-35.2c53.4-22.6 101.3-54.9 142.4-96 41.1-41.1 73.4-89 96-142.4C948.2 631.1 960 572.5 960 512s-11.8-119.1-35.2-174.4z m-55 325.5c-19.6 46.2-47.6 87.8-83.2 123.4s-77.2 63.7-123.4 83.2c-47.8 20.2-98.7 30.5-151.1 30.5S408.8 889.9 361 869.7c-46.2-19.6-87.8-47.6-123.4-83.2s-63.7-77.2-83.2-123.4c-20.2-47.8-30.5-98.7-30.5-151.1s10.3-103.3 30.5-151.1c19.6-46.2 47.6-87.8 83.2-123.4s77.2-63.7 123.4-83.2c47.8-20.2 98.7-30.5 151.1-30.5s103.3 10.3 151.1 30.5c46.2 19.6 87.8 47.6 123.4 83.2s63.7 77.2 83.2 123.4c20.2 47.8 30.5 98.7 30.5 151.1 0 52.4-10.3 103.3-30.5 151.1z" fill="#bfbfbf" p-id="1685"></path><path d="M384 384h256v256H384z" fill="#bfbfbf" p-id="1686"></path></svg>