<?xml version="1.0" standalone="no"?><!DOCTYPE svg PUBLIC "-//W3C//DTD SVG 1.1//EN" "http://www.w3.org/Graphics/SVG/1.1/DTD/svg11.dtd"><svg t="1493711740396" class="icon" style="" viewBox="0 0 1024 1024" version="1.1" xmlns="http://www.w3.org/2000/svg" p-id="6330" xmlns:xlink="http://www.w3.org/1999/xlink" width="600" height="600"><defs><style type="text/css"></style></defs><path d="M635.126306 473.919657V134.648087c0-19.386245-15.715616-35.101861-35.102885-35.10186H161.243509c-19.386245 0-35.102884 15.715616-35.102885 35.10186v614.293312c0 19.386245 15.715616 35.101861 35.102885 35.10186h291.130529c-6.629657-22.259267-10.310525-45.791223-10.310525-70.204745 0-117.613707 82.685907-215.795095 193.062793-239.918857z m52.654327 29.304622c-116.319516 0-210.614235 94.295743-210.614236 210.615259 0 116.318492 94.295743 210.614235 210.614236 210.614235 116.319516 0 210.615259-94.295743 210.615259-210.614235-0.001024-116.319516-94.295743-210.615259-210.615259-210.615259z m0 315.922889c-52.16491 0-95.343178-37.966692-103.701154-87.756188h-19.156894c-9.693122 0-17.551442-7.85832-17.551443-17.551442a17.4982 17.4982 0 0 1 5.140929-12.410514l35.102884-35.101861a17.496152 17.496152 0 0 1 12.410514-5.139904 17.4982 17.4982 0 0 1 12.411538 5.140928l35.101861 35.101861a17.4982 17.4982 0 0 1 5.140928 12.410514c0 9.693122-7.857296 17.551442-17.551442 17.551442h-15.249748c7.805078 30.262979 35.203225 52.654327 67.90305 52.654327 9.14432 0 17.854512-1.802038 25.867439-4.98325l26.223751 26.223751c-15.373638 8.774697-33.123714 13.860336-52.092213 13.860336z m135.269585-92.897116l-35.102884 35.101861a17.496152 17.496152 0 0 1-12.410514 5.139904 17.4982 17.4982 0 0 1-12.411538-5.140928l-35.101861-35.101861a17.4982 17.4982 0 0 1-5.140928-12.410514c0-9.693122 7.85832-17.551442 17.551442-17.551442h15.249748c-7.805078-30.262979-35.203225-52.654327-67.904074-52.654327-9.14432 0-17.854512 1.802038-25.866415 4.98325l-26.223751-26.223751c15.37159-8.776745 33.12269-13.86136 52.090166-13.861359 52.165933 0 95.343178 37.966692 103.702177 87.756187h19.156894c9.693122 0 17.551442 7.85832 17.551443 17.551442a17.4982 17.4982 0 0 1-5.139905 12.411538z" fill="#FFFFFF" p-id="6331"></path><path d="M205.12109 213.628554c19.387269 0 35.102884-15.715616 35.102885-35.101861s-15.715616-35.101861-35.102885-35.101861c-19.386245 0-35.102884 15.715616-35.102884 35.101861s15.71664 35.101861 35.102884 35.101861z m0 280.820004c-19.386245 0-35.102884 15.71664-35.102884 35.102884 0 19.386245 15.715616 35.101861 35.102884 35.101861s35.102884-15.715616 35.102885-35.101861-15.715616-35.102884-35.102885-35.102884z m0 166.737677c-19.386245 0-35.102884 15.715616-35.102884 35.101861s15.715616 35.101861 35.102884 35.10186 35.102884-15.715616 35.102885-35.10186-15.715616-35.101861-35.102885-35.101861z" fill="#85AB70" p-id="6332"></path><path d="M205.12109 354.039068m-35.102884 0a35.102884 35.102884 0 1 0 70.205769 0 35.102884 35.102884 0 1 0-70.205769 0Z" fill="#F1806F" p-id="6333"></path><path d="M573.697282 196.077111c9.693122 0 17.551442-7.857296 17.551442-17.551442 0-9.693122-7.857296-17.551442-17.551442-17.551442-9.693122 0-17.551442 7.85832-17.551442 17.551442 0 9.694146 7.85832 17.551442 17.551442 17.551442z m-52.653303-35.10186c-9.693122 0-17.551442 7.85832-17.551442 17.551442 0 9.694146 7.857296 17.551442 17.551442 17.551442 9.693122 0 17.551442-7.857296 17.551442-17.551442 0-9.693122-7.85832-17.551442-17.551442-17.551442z m52.653303 175.512374c-9.693122 0-17.551442 7.85832-17.551442 17.551443 0 9.694146 7.85832 17.552466 17.551442 17.552466 9.693122 0 17.551442-7.85832 17.551442-17.552466 0-9.693122-7.85832-17.551442-17.551442-17.551443z m-52.653303 0c-9.693122 0-17.551442 7.85832-17.551442 17.551443 0 9.694146 7.857296 17.552466 17.551442 17.552466 9.693122 0 17.551442-7.85832 17.551442-17.552466 0-9.693122-7.85832-17.551442-17.551442-17.551443z" fill="#86AEDD" p-id="6334"></path><path d="M635.126306 433.019534H126.140624v17.551442h508.985682v-17.551442zM126.140624 626.082327h332.121779c2.281217-5.96106 4.757995-11.822804 7.479482-17.551442H126.140624v17.551442z m508.985682-368.575168H126.140624v17.551442h508.985682v-17.551442z m52.654327 280.820004c-96.932248 0-175.512375 78.579103-175.512375 175.512375s78.579103 175.512375 175.512375 175.512375c96.933271 0 175.512375-78.579103 175.512374-175.512375s-78.580127-175.512375-175.512374-175.512375z m0 333.473307c-87.239125 0-157.960932-70.721807-157.960933-157.960932s70.721807-157.960932 157.960933-157.960932c87.239125 0 157.960932 70.721807 157.960932 157.960932S775.019758 871.80047 687.780633 871.80047z" fill="" p-id="6335"></path><path d="M810.639704 696.288096H791.620011c-8.355928-49.80383-51.661158-87.756187-103.839378-87.756188-18.973619 0-36.774889 5.021134-52.149552 13.801975l26.253444 26.253443a69.972323 69.972323 0 0 1 25.896108-4.953557c32.713136 0 60.200362 22.373942 67.993152 52.654327h-15.33985c-9.693122 0-17.551442 7.85832-17.551442 17.551442 0 4.847073 1.964836 9.234422 5.140928 12.410514l35.102885 35.101861a17.495129 17.495129 0 0 0 12.410514 5.139904 17.4982 17.4982 0 0 0 12.410514-5.140928l35.102884-35.101861a17.4982 17.4982 0 0 0 5.140929-12.410514c-0.001024-9.692098-7.859344-17.550418-17.551443-17.550418zM687.780633 468.121394c-5.902699 0-11.75318 0.221159-17.551443 0.630714v-334.104021c0-38.773513-31.431232-70.205769-70.204745-70.205769H161.243509c-38.772489 0-70.204745 31.432256-70.204745 70.205769v614.293312c0 38.773513 31.432256 70.205769 70.204745 70.205769h304.479946c39.438015 83.011503 124.039612 140.40949 222.057178 140.40949 135.705761 0 245.71712-110.012383 245.717119-245.71712 0-135.706785-110.011359-245.718144-245.717119-245.718144zM452.258339 784.044283H161.243509c-19.386245 0-35.102884-15.715616-35.102885-35.101861V134.648087c0-19.386245 15.715616-35.101861 35.102885-35.10186h438.780936c19.387269 0 35.102884 15.715616 35.102885 35.10186V473.795767c-110.400435 24.106356-193.063817 122.412658-193.063817 240.043771 0 24.39714 3.57336 47.957765 10.194826 70.204745z m235.522294 140.40949c-116.319516 0-210.614235-94.295743-210.614236-210.614235 0-116.319516 94.295743-210.615259 210.614236-210.615259 116.319516 0 210.615259 94.295743 210.615259 210.615259-0.001024 116.318492-94.295743 210.614235-210.615259 210.614235z m0-140.40949c-32.712112 0-60.199338-22.373942-67.993153-52.654327h15.33985c9.693122 0 17.551442-7.85832 17.551442-17.551442 0-4.847073-1.964836-9.234422-5.140928-12.410514l-35.102885-35.101861a17.495129 17.495129 0 0 0-12.410514-5.139904 17.4982 17.4982 0 0 0-12.410514 5.140928l-35.102884 35.101861a17.4982 17.4982 0 0 0-5.140928 12.410514c0 9.693122 7.85832 17.551442 17.551442 17.551442h19.019694c8.355928 49.80383 51.661158 87.756187 103.839378 87.756188 19.046315 0 36.910042-5.05697 52.325659-13.900268l-26.231942-26.231942a70.006111 70.006111 0 0 1-26.093717 5.029325z" fill="" p-id="6336"></path></svg>