<?xml version="1.0" standalone="no"?><!DOCTYPE svg PUBLIC "-//W3C//DTD SVG 1.1//EN" "http://www.w3.org/Graphics/SVG/1.1/DTD/svg11.dtd"><svg t="1493711574742" class="icon" style="" viewBox="0 0 1024 1024" version="1.1" xmlns="http://www.w3.org/2000/svg" p-id="2473" xmlns:xlink="http://www.w3.org/1999/xlink" width="600" height="600"><defs><style type="text/css"></style></defs><path d="M128.742317 654.753164l72.845345-29.138753L157.881069 581.907818l-29.138752 72.845346zM614.242117 139.880141l-44.061881 44.060858 29.374246 29.374246 44.061881-44.060857-29.374246-29.374247zM177.351273 548.984786l57.159422 57.159422 326.544675-326.544675-57.159422-57.159422-326.544675 326.544675z" fill="#FFFFFF" p-id="2474"></path><path d="M442.894908 283.437055l60.994896-60.994897 57.159422 57.158399-60.99592 60.99592z" fill="#86AEDD" p-id="2475"></path><path d="M79.148383 680.394324c-0.011263 0.026621-0.029693 0.047099-0.039931 0.07372-0.049146 0.118771-0.084982 0.243685-0.134129 0.362455 0.017406-0.039932 0.030717-0.081911 0.049146-0.122866l0.124914-0.313309zM948.110644 875.576559c-206.709137-128.714672-318.740621-129.688387-539.559922-15.230294-116.638968 60.458381-211.0371 23.936391-261.215672-25.320684-39.636649-38.901499-50.87379-90.271874-36.510726-132.778473l-8.89142 3.559026c-0.080887 0.028669-0.153583 0.066553-0.23447 0.094197l-0.246757 0.098293-0.017406-0.05529c-1.756987 0.562113-3.611244 0.916377-5.560721 0.916378-10.230662 0-18.523109-8.298591-18.523109-18.53642 0-1.949478 0.383957-3.791447 0.94095-5.556626l-0.028668-0.009215c-22.83981 57.742013-9.069576 127.713312 43.188506 179.001776 36.960212 36.278305 93.952741 67.080871 163.936328 67.080871 42.365303 0 89.492697-9.664454 139.82178-35.132577 209.642568-106.096021 308.434191-107.78748 503.400387 13.62689 8.691763 5.405091 20.12549 2.716368 25.522389-6.061402 5.384613-8.769578 2.686675-20.271906-6.021469-25.69645z" fill="#EE6A56" p-id="2476"></path><path d="M199.375046 526.958965l13.098565-13.098565 57.158398 57.159422-13.097541 13.097541z" fill="" p-id="2477"></path><path d="M688.625338 169.305582c0-5.119427-2.073368-9.753532-5.425568-13.10778L627.630441 100.589566c-3.352201-3.355272-7.983234-5.429664-13.098565-5.429664s-9.746364 2.075416-13.098565 5.429664l-60.189098 60.231078c-12.698226-3.914314-27.082791-0.849825-37.132226 9.205753a37.53666 37.53666 0 0 0-1.793847 1.942311L138.346361 536.193386a18.53642 18.53642 0 0 0-4.582911 7.567537l-54.62121 136.647735a18.436079 18.436079 0 0 0-1.791799 7.914634c0 10.237829 8.293471 18.53642 18.523109 18.53642 2.833091 0 5.506455-0.655287 7.906443-1.792823l136.534084-54.651927a18.522086 18.522086 0 0 0 7.583918-4.594174l363.97178-364.224679a37.922665 37.922665 0 0 0 1.940262-1.793847c10.049434-10.056602 13.110852-24.450382 9.19961-37.157822l60.185003-60.226983a18.484202 18.484202 0 0 0 5.430688-13.111875zM158.170829 582.2457l43.707617 43.738334-72.84637 29.158206 29.138753-72.89654z m76.629625 24.253796l-57.159422-57.199354 326.544675-326.770953 57.159422 57.199353L234.800454 606.499496z m366.633881-394.693458l-0.001024 0.001024-1.588046 1.58907-29.374246-29.394724 1.588046-1.58907 0.002048-0.002048 42.470763-42.500456 29.374247 29.394724-42.471788 42.50148z" fill="" p-id="2478"></path></svg>