<?xml version="1.0" standalone="no"?><!DOCTYPE svg PUBLIC "-//W3C//DTD SVG 1.1//EN" "http://www.w3.org/Graphics/SVG/1.1/DTD/svg11.dtd"><svg t="1493711731438" class="icon" style="" viewBox="0 0 1024 1024" version="1.1" xmlns="http://www.w3.org/2000/svg" p-id="6088" xmlns:xlink="http://www.w3.org/1999/xlink" width="600" height="600"><defs><style type="text/css"></style></defs><path d="M591.863055 567.715744V519.959685H432.673461v63.675428h159.189594v-15.919369z m31.837715 15.920393c0 17.583183-14.254531 31.837714-31.837715 31.837714H432.673461c-17.584207 0-31.837714-14.254531-31.837715-31.837714V567.716768H98.374902v238.784392c0 17.583183 14.254531 31.838738 31.837714 31.838738h764.11026c17.583183 0 31.837714-14.254531 31.837714-31.838738V567.715744H623.70077v15.920393z m270.622106-238.785416H130.212616c-17.583183 0-31.837714 14.254531-31.837714 31.837714v159.189595h302.460844v-15.918345c0-17.583183 14.253508-31.837714 31.837715-31.837715h159.189594c17.583183 0 31.837714 14.254531 31.837715 31.837715v15.918345h302.460844V376.688435c0-17.583183-14.254531-31.837714-31.838738-31.837714z" fill="#FFFFFF" p-id="6089"></path><path d="M639.620139 185.661126H384.916377c-17.584207 0-31.837714 14.254531-31.837714 31.838738v95.513143h31.837714v-95.513143h254.702738v95.513143h31.837714v-95.513143c0.001024-17.584207-14.253508-31.838738-31.83669-31.838738z" fill="#EE6A56" p-id="6090"></path><path d="M432.673461 519.959685h159.189594v63.676452H432.673461z" fill="#F7D54A" p-id="6091"></path><path d="M894.322876 313.013007H703.295567v-95.513143c0-35.167389-28.508039-63.676452-63.675428-63.676452H384.916377c-35.167389 0-63.676452 28.509063-63.676452 63.676452v95.513143H130.212616c-35.167389 0-63.675428 28.509063-63.675428 63.676452v429.811701c0 35.167389 28.508039 63.676452 63.675428 63.676452h764.11026c35.167389 0 63.675428-28.509063 63.675428-63.676452V376.688435c0.001024-35.167389-28.508039-63.675428-63.675428-63.675428z m-541.244213-95.514167c0-17.583183 14.253508-31.838738 31.837714-31.838738h254.702738c17.583183 0 31.837714 14.254531 31.837714 31.838738v95.513143h-31.837714v-95.513143H384.916377v95.513143h-31.837714v-95.513143z m254.702737 31.838738v63.675429H416.754092v-63.675429H607.7814z m318.380214 557.163582c0 17.583183-14.254531 31.838738-31.837714 31.838738H130.212616c-17.583183 0-31.837714-14.254531-31.837714-31.838738V567.715744h302.460844v15.919369c0 17.583183 14.253508 31.837714 31.837715 31.837714h159.189594c17.583183 0 31.837714-14.254531 31.837715-31.837714v-15.919369h302.460844v238.785416zM432.673461 583.636137v-63.676452h159.189594v63.676452H432.673461z m493.488153-47.758107H623.70077v-15.918345c0-17.583183-14.254531-31.837714-31.837715-31.837715H432.673461c-17.584207 0-31.837714 14.254531-31.837715 31.837715v15.918345H98.374902V376.688435c0-17.583183 14.254531-31.837714 31.837714-31.837714h764.11026c17.583183 0 31.837714 14.254531 31.837714 31.837714v159.189595z" fill="" p-id="6092"></path><path d="M98.374902 806.50116h63.675428v-15.919369h-63.675428v15.919369z m31.837714-47.757083h-31.837714v15.919369h31.837714v-15.919369z m732.272546-382.055642v15.919369h63.675428v-15.919369h-63.675428z m31.837714 47.757083h31.837714v-15.919369h-31.837714v15.919369z" fill="" p-id="6093"></path></svg>