<?xml version="1.0" standalone="no"?><!DOCTYPE svg PUBLIC "-//W3C//DTD SVG 1.1//EN" "http://www.w3.org/Graphics/SVG/1.1/DTD/svg11.dtd"><svg t="1493711693836" class="icon" style="" viewBox="0 0 1024 1024" version="1.1" xmlns="http://www.w3.org/2000/svg" p-id="5246" xmlns:xlink="http://www.w3.org/1999/xlink" width="600" height="600"><defs><style type="text/css"></style></defs><path d="M822.863871 555.247892c2.010911-14.663062 3.030701-29.21452 3.030701-43.247892 0-14.033372-1.020814-28.58483-3.030701-43.248916a34.994353 34.994353 0 0 1 10.300287-29.880046l70.460716-68.313628-73.513942-127.673381-94.27117 27.039788a34.712784 34.712784 0 0 1-9.582543 1.347433 34.789576 34.789576 0 0 1-21.425824-7.383237c-22.836738-17.848369-47.937287-32.408018-74.606428-43.275538a34.911418 34.911418 0 0 1-20.687603-23.896459l-23.755164-95.274577H438.753292l-23.753116 95.274577a34.913466 34.913466 0 0 1-20.688627 23.896459c-26.668117 10.866495-51.76969 25.426144-74.607452 43.275538a34.787528 34.787528 0 0 1-21.4248 7.383237c-3.204761 0-6.427952-0.442318-9.581519-1.347433l-94.272194-27.039788-73.513942 127.673381 70.46174 68.313628a34.995377 34.995377 0 0 1 10.300287 29.879022c-2.011935 14.66511-3.030701 29.217592-3.030701 43.248916 0 14.032348 1.01979 28.582783 3.030701 43.248916a34.994353 34.994353 0 0 1-10.300287 29.879022l-70.462764 68.313629 73.514966 127.67338 94.272194-27.038763a34.783432 34.783432 0 0 1 31.006319 6.03478c22.836738 17.848369 47.938311 32.410066 74.606428 43.275537a34.91449 34.91449 0 0 1 20.688627 23.896459l23.753116 95.274578h147.028909l23.755163-95.274578a34.916537 34.916537 0 0 1 20.687603-23.896459c26.668117-10.865471 51.768666-25.426144 74.606428-43.275537a34.791623 34.791623 0 0 1 31.008367-6.03478l94.27117 27.038763 73.513942-127.67338-70.46174-68.313629a34.994353 34.994353 0 0 1-10.298239-29.879022z m-306.200073 131.456637c-96.486857 0-174.704529-78.218696-174.704529-174.704529 0-96.486857 78.217672-174.704529 174.704529-174.704529s174.704529 78.217672 174.704529 174.704529c0 96.485834-78.217672 174.704529-174.704529 174.704529z" fill="#FFFFFF" p-id="5247"></path><path d="M516.663798 267.41325c-135.081191 0-244.58675 109.505559-244.586751 244.58675s109.505559 244.58675 244.586751 244.58675 244.58675-109.505559 244.58675-244.58675c0-135.082215-109.505559-244.58675-244.58675-244.58675z m0 419.291279c-96.486857 0-174.704529-78.218696-174.704529-174.704529 0-96.486857 78.217672-174.704529 174.704529-174.704529s174.704529 78.217672 174.704529 174.704529c0 96.485834-78.217672 174.704529-174.704529 174.704529z" fill="#86AEDD" p-id="5248"></path><path d="M516.663798 337.295471c-96.486857 0-174.704529 78.217672-174.704529 174.704529 0 96.486857 78.217672 174.704529 174.704529 174.704529s174.704529-78.218696 174.704529-174.704529c0-96.486857-78.217672-174.704529-174.704529-174.704529z m0 314.468971c-77.189691 0-139.763418-62.574752-139.763419-139.764442 0-77.189691 62.574752-139.764442 139.763419-139.764442s139.763418 62.574752 139.763418 139.764442c0 77.188667-62.573728 139.764442-139.763418 139.764442z m420.964308-13.960676l-80.241893-77.794807c2.153231-15.703329 3.355272-31.711776 3.355272-48.008959 0-16.298207-1.202041-32.30563-3.355272-48.008959l80.241893-77.795831-0.037884-0.037884c5.614987-5.441951 7.095525-14.169549 3.015342-21.255859l-87.118307-151.299534c-3.219095-5.591438-9.050122-8.687667-15.056233-8.687667-1.606476 0.001024-3.225239 0.222183-4.810214 0.676788l-0.014334-0.051194-107.351305 30.791303c-25.117955-19.631977-52.965588-35.886157-82.911162-48.087798L616.289888 79.73507l-0.051195 0.01331c-1.89214-7.596205-8.689715-13.246004-16.852128-13.246004H425.149951c-8.162414 0-14.959988 5.649799-16.852128 13.246004l-0.051195-0.01331-27.054122 108.508295c-29.94455 12.201641-57.793207 28.455821-82.911162 48.087798l-107.35028-30.791303-0.015359 0.051194a17.4296 17.4296 0 0 0-4.810213-0.676788c-6.004064 0-11.837138 3.096229-15.056234 8.687667L83.930952 364.901467c-4.080183 7.08631-2.599645 15.814933 3.015342 21.255859l-0.037884 0.037884 80.241893 77.795831c-2.153231 15.703329-3.355272 31.710752-3.355272 48.008959 0 16.297183 1.202041 32.30563 3.355272 48.008959l-80.241893 77.794807 0.037884 0.038908c-5.614987 5.440927-7.095525 14.169549-3.015342 21.255859l87.118306 151.299534c3.219095 5.591438 9.051146 8.686643 15.056234 8.686644 1.606476 0 3.226263-0.221159 4.810213-0.676789l0.015359 0.050171L298.281344 787.667813c25.117955 19.630953 52.966612 35.886157 82.911162 48.086774l27.054122 108.508296 0.051195-0.013311c1.89214 7.596205 8.690739 13.246004 16.852128 13.246004h174.236614c8.162414 0 14.959988-5.649799 16.852128-13.246004l0.051195 0.013311 27.054121-108.508296c29.945574-12.200618 57.793207-28.455821 82.911162-48.086774l107.351305 30.79028 0.014334-0.050171c1.584974 0.454605 3.203737 0.676788 4.810214 0.676789 6.005087 0 11.837138-3.096229 15.056233-8.686644l87.118307-151.299534c4.080183-7.08631 2.599645-15.815957-3.015342-21.255859l0.037884-0.038908zM830.110932 781.114947l-94.27117-27.038764a34.791623 34.791623 0 0 0-31.008367 6.034781c-22.836738 17.848369-47.937287 32.410066-74.606428 43.275537a34.916537 34.916537 0 0 0-20.687603 23.896459l-23.755164 95.274578H438.753292l-23.753116-95.274578a34.91449 34.91449 0 0 0-20.688627-23.896459c-26.668117-10.865471-51.76969-25.426144-74.606428-43.275537a34.788552 34.788552 0 0 0-31.006319-6.034781l-94.272194 27.038764-73.514966-127.67338 70.462764-68.313629a34.994353 34.994353 0 0 0 10.300286-29.879022c-2.011935-14.66511-3.030701-29.216568-3.0307-43.248916 0-14.032348 1.01979-28.583807 3.0307-43.248916a34.995377 34.995377 0 0 0-10.300286-29.879022l-70.46174-68.313629 73.513942-127.67338 94.272194 27.039787a34.784456 34.784456 0 0 0 31.006319-6.035804c22.836738-17.848369 47.938311-32.408018 74.607452-43.275537a34.917561 34.917561 0 0 0 20.688627-23.896459l23.753116-95.274578h147.028908l23.755164 95.274578a34.911418 34.911418 0 0 0 20.687603 23.896459c26.668117 10.866495 51.76969 25.426144 74.606428 43.275537a34.791623 34.791623 0 0 0 21.425824 7.383238c3.204761 0 6.43-0.442318 9.582543-1.347434l94.271169-27.039787 73.513943 127.67338-70.460717 68.313629a34.994353 34.994353 0 0 0-10.300286 29.880046c2.010911 14.664086 3.030701 29.21452 3.030701 43.248916 0 14.033372-1.020814 28.58483-3.030701 43.247892a34.995377 34.995377 0 0 0 10.299263 29.880046l70.46174 68.313628-73.514966 127.672357z" fill="" p-id="5249"></path></svg>