<?xml version="1.0" standalone="no"?><!DOCTYPE svg PUBLIC "-//W3C//DTD SVG 1.1//EN" "http://www.w3.org/Graphics/SVG/1.1/DTD/svg11.dtd"><svg t="1493711585872" class="icon" style="" viewBox="0 0 1024 1024" version="1.1" xmlns="http://www.w3.org/2000/svg" p-id="2714" xmlns:xlink="http://www.w3.org/1999/xlink" width="600" height="600"><defs><style type="text/css"></style></defs><path d="M623.135585 136.935447v157.422369h157.422369l-157.422369-157.422369zM334.867839 593.753148a8.152175 8.152175 0 0 1-6.234438 0.825251 8.203369 8.203369 0 0 1-4.989393-3.847761l-45.381669-79.005039v340.996816c0 18.140176 14.705041 32.845217 32.845217 32.845217h195.311245l-168.603196-293.525397-2.947766 1.710913z m271.845649-266.550115c-9.069576 0-16.422097-7.352521-16.422097-16.422096V113.710656h-279.182811c-18.139152 0-32.845217 14.705041-32.845217 32.845218V316.660086c0.966548 0.74846 1.783608 1.655623 2.344697 2.731726l0.05017-0.026621 79.211865 149.580431-0.050171 0.026621c0.925592 1.773369 1.268594 3.864143 0.712624 5.950822-1.174396 4.405779-5.679492 7.019758-10.062745 5.839218-2.306814-0.621498-4.067896-2.193162-5.096901-4.164142l-0.05017 0.027645-67.058346-126.630042v11.904715l109.927401 191.37543a8.264802 8.264802 0 0 1 0.820132 6.266178c-0.588734 2.208521-2.063129 3.863119-3.893836 4.899292l0.065528 0.114675-2.947765 1.710912 183.409602 319.302734h205.293103c4.534788 0 8.855584-0.919449 12.785256-2.581215 11.789016-4.986322 20.059961-16.659638 20.059961-30.264002V327.203033H606.713488z" fill="#FFFFFF" p-id="2715"></path><path d="M491.755739 212.245285H343.952773V228.667381h147.802966v-16.422096z m-147.802966 49.267314v16.422096H524.600957v-16.422096H343.952773z" fill="#86AEDD" p-id="2716"></path><path d="M343.952773 787.033004v16.422097h115.300751l-9.433056-16.422097H343.952773z m262.760715-147.801942H424.146544l9.433055 16.422097h173.132865v-16.422097zM518.479146 803.456125h219.614188v-16.423121H509.046091l9.433055 16.423121zM343.952773 602.727503v3.658342h2.101013l-2.101013-3.658342z m20.968148 36.503559h-20.968148v16.422097h30.401203l-9.433055-16.422097z m-20.968148-246.337594v16.422097h394.140561v-16.422097H343.952773z m10.429296 65.689411h383.711265v-16.422097H345.685187l8.696882 16.422097z m7.717024 49.267314h375.994241v-16.422097H352.665014l9.434079 16.422097z m26.09167 45.423648c0.662454 1.151871 0.922521 2.47985 0.971667 3.843666h348.930904v-16.422097H380.965204l7.225559 12.578431z m17.08967 53.112004h332.812901v-16.423121H395.847377l9.433056 16.423121z" fill="" p-id="2717"></path><path d="M738.254084 716.371606l-11.611884-11.611883-21.394084 21.39306-21.39306-21.39306-11.612907 11.611883 21.39306 21.394084-21.39306 21.39306 11.612907 11.612908 21.39306-21.39306 21.394084 21.39306 11.611884-11.612908-21.39306-21.39306z" fill="#EE6A56" p-id="2718"></path><path d="M831.812629 299.161886L618.325372 85.675652a16.373974 16.373974 0 0 0-11.612908-4.810213H311.107556c-36.279329 0-65.690435 29.410082-65.690435 65.689411v158.163662l-8.284256-14.421425a8.196202 8.196202 0 0 0-11.223831-3.02251l-50.314749 29.198138a8.224871 8.224871 0 0 0-3.828307 5.01499 8.274017 8.274017 0 0 0 0.820132 6.266179l72.829987 126.791815v398.17774c0 36.279329 29.411106 65.690435 65.690435 65.690435h214.17838l5.956965 10.370934c0.55085 0.960404 1.312621 1.784632 2.210568 2.46142l-0.016382 0.022526 35.42848 26.641496 0.043003-0.057338c0.811941 0.617403 1.705793 1.140608 2.753228 1.422177 4.383253 1.18054 8.888349-1.434463 10.062745-5.839218 0.279521-1.046411 0.314333-2.096917 0.193514-3.111587l0.028669-0.003072-0.01843-0.154607a0.035836 0.035836 0 0 0-0.001024-0.006143l-3.766874-31.744541H770.937527c36.279329 0 65.690435-29.411106 65.690435-65.690434V310.782984a16.367831 16.367831 0 0 0-4.815333-11.621098zM623.135585 136.934423l157.422369 157.422369h-157.422369v-157.422369z m-312.028029 748.634233c-18.139152 0-32.845217-14.706065-32.845217-32.845217V511.725599l45.381669 79.005039a8.203369 8.203369 0 0 0 4.989393 3.847761c2.191115 0.589758 4.412946 0.231398 6.234438-0.825251l2.947766-1.710913 168.60422 293.526421H311.107556z m492.675188-32.846241c0 18.140176-14.705041 32.845217-32.845217 32.845217H565.645448L382.235846 566.265922l2.947765-1.710912-0.065528-0.114675c1.830707-1.036172 3.305102-2.690771 3.893836-4.899292a8.274017 8.274017 0 0 0-0.820132-6.266178L278.263363 361.899435v-11.903691l67.058345 126.630042 0.05017-0.027645c1.029005 1.970979 2.790088 3.542643 5.096901 4.164142 4.383253 1.18054 8.888349-1.434463 10.062745-5.839218 0.55597-2.086678 0.212968-4.177452-0.712624-5.950822l0.050171-0.026621-79.211865-149.580431-0.05017 0.026621a8.438863 8.438863 0 0 0-2.344697-2.795207V146.55485c0-18.140176 14.705041-32.845217 32.845217-32.845217h279.182811v197.069256c0 9.0706 7.352521 16.422097 16.422097 16.422096h197.07028v525.52143z" fill="" p-id="2719"></path></svg>