<?xml version="1.0" standalone="no"?><!DOCTYPE svg PUBLIC "-//W3C//DTD SVG 1.1//EN" "http://www.w3.org/Graphics/SVG/1.1/DTD/svg11.dtd"><svg t="1527995779895" class="icon" style="" viewBox="0 0 1024 1024" version="1.1" xmlns="http://www.w3.org/2000/svg" p-id="10933" xmlns:xlink="http://www.w3.org/1999/xlink" width="200" height="200"><defs><style type="text/css"></style></defs><path d="M913.4 683c-43.8-43.8-117.6-43.8-164.1 1.4l-154.6-78c6.8-30.1 1.4-62.9-16.4-90.3l28.7-23.3c32.8 20.5 75.2 16.4 103.9-12.3 32.8-32.8 32.8-86.2 0-119s-86.2-32.8-119 0c-28.7 28.7-32.8 73.9-10.9 105.3l-26 21.9c-17.8-15-39.7-23.3-61.5-24.6l-15-129.9c12.3-5.5 23.3-13.7 32.8-23.3 45.1-45.1 45.1-119 0-164.1-45.1-45.1-119-45.1-164.1 0-45.1 45.1-45.1 119 0 164.1C366.3 330 391 341 417 343.7L444.3 471c-15 5.5-30.1 15-42.4 27.4-5.5 5.5-10.9 12.3-15 19.1l-84.8-42.4c1.4-12.3-4.1-24.6-12.3-34.2-17.8-17.8-46.5-17.8-62.9 0-17.8 17.8-17.8 46.5 0 62.9 16.4 16.4 42.4 17.8 60.2 2.7l86.2 43.8c-5.5 21.9-5.5 46.5 1.4 68.4l-116.3 80.7c-45.1-30.1-106.7-26-147.7 13.7-45.1 45.1-45.1 119 0 164.1 45.1 45.1 119 45.1 164.1 0 31.5-31.5 41-76.6 28.7-116.3l98.5-98.5c17.8 17.8 39.7 28.7 62.9 32.8l4.1 56.1c-9.6 4.1-17.8 9.6-26 16.4-30.1 30.1-30.1 78 0 108.1 30.1 30.1 78 30.1 108.1 0 30.1-30.1 30.1-78 0-108.1-13.7-13.7-30.1-20.5-46.5-21.9l-5.5-49.2c24.6-4.1 47.9-13.7 65.7-32.8 2.7-2.7 4.1-4.1 5.5-6.8l146.4 95.7c-4.1 34.2 6.8 69.8 32.8 94.4 45.1 45.1 119 45.1 164.1 0 45-45.1 45-119-0.2-164.1z" fill="#1296db" p-id="10934"></path></svg>