<?xml version="1.0" standalone="no"?><!DOCTYPE svg PUBLIC "-//W3C//DTD SVG 1.1//EN" "http://www.w3.org/Graphics/SVG/1.1/DTD/svg11.dtd"><svg t="1527995761231" class="icon" style="" viewBox="0 0 1024 1024" version="1.1" xmlns="http://www.w3.org/2000/svg" p-id="10689" xmlns:xlink="http://www.w3.org/1999/xlink" width="200" height="200"><defs><style type="text/css"></style></defs><path d="M146.041905 268.190476a268.190476 252.830476 90 1 0 505.660952 0 268.190476 252.830476 90 1 0-505.660952 0Z" fill="#1296db" p-id="10690"></path><path d="M402.285714 536.380952C180.175238 536.380952 0 755.809524 0 1024h804.571429c0-268.190476-180.175238-487.619048-402.285715-487.619048zM902.095238 195.047619h-195.047619a24.380952 24.380952 0 0 0 0 48.761905h195.047619a24.380952 24.380952 0 0 0 0-48.761905zM902.095238 365.714286h-170.666667a24.380952 24.380952 0 0 0 0 48.761904h170.666667a24.380952 24.380952 0 0 0 0-48.761904zM902.095238 536.380952h-146.285714a24.380952 24.380952 0 0 0 0 48.761905h146.285714a24.380952 24.380952 0 0 0 0-48.761905z" fill="#1296db" p-id="10691"></path><path d="M926.47619 0H609.52381a24.380952 24.380952 0 0 0 0 48.761905h316.95238a48.761905 48.761905 0 0 1 48.761905 48.761905v828.95238a48.761905 48.761905 0 0 1-48.761905 48.761905h-48.761904a24.380952 24.380952 0 0 0 0 48.761905h48.761904a97.52381 97.52381 0 0 0 97.52381-97.52381V97.52381a97.52381 97.52381 0 0 0-97.52381-97.52381z" fill="#1296db" p-id="10692"></path></svg>