<?xml version="1.0" encoding="utf-8"?>
<!-- Generator: Adobe Illustrator 16.0.4, SVG Export Plug-In . SVG Version: 6.00 Build 0)  -->
<!DOCTYPE svg PUBLIC "-//W3C//DTD SVG 1.1//EN" "http://www.w3.org/Graphics/SVG/1.1/DTD/svg11.dtd">
<svg version="1.1" id="Layer_1" xmlns="http://www.w3.org/2000/svg" xmlns:xlink="http://www.w3.org/1999/xlink" x="0px" y="0px"
	 width="50px" height="50px" viewBox="0 0 50 50" enable-background="new 0 0 50 50" xml:space="preserve">
<path d="M22.846,13.509c0,0.26,0.048,0.507,0.117,0.745c-0.231-0.373-0.371-0.808-0.371-1.279c0-1.346,1.091-2.436,2.436-2.436
	c0.471,0,0.908,0.14,1.279,0.371c-0.238-0.068-0.484-0.116-0.744-0.116C24.062,10.793,22.846,12.008,22.846,13.509z M25.562,19.732
	c0.26,0,0.506,0.048,0.744,0.117c-0.373-0.231-0.808-0.371-1.279-0.371c-1.345,0-2.436,1.09-2.436,2.436
	c0,0.472,0.14,0.907,0.371,1.279c-0.068-0.238-0.117-0.485-0.117-0.745C22.846,20.948,24.062,19.732,25.562,19.732z M20.895,26.721
	h8.21v8.209H25.5v1.283H26v4.945h-2v-4.945h0.5V34.93h-3.605V26.721z M22.126,30.826c0,1.587,1.287,2.873,2.874,2.873
	s2.874-1.286,2.874-2.873S26.587,27.953,25,27.953S22.126,29.239,22.126,30.826z M20.331,24.605v-5.439h-2.976L20.331,24.605z
	 M20.331,15.666v-5.439h-2.976L20.331,15.666z M29.669,10.227v5.439l2.976-5.439H29.669z M20.331,33.545v-5.439h-2.976
	L20.331,33.545z M20.895,17.782h8.21v8.209h-8.21V17.782z M22.126,21.886c0,1.587,1.287,2.874,2.874,2.874s2.874-1.286,2.874-2.874
	c0-1.587-1.287-2.873-2.874-2.873S22.126,20.299,22.126,21.886z M29.669,33.545l2.976-5.439h-2.976V33.545z M20.895,8.842h8.21
	v8.209h-8.21V8.842z M22.126,12.947c0,1.587,1.287,2.873,2.874,2.873s2.874-1.286,2.874-2.873c0-1.587-1.287-2.874-2.874-2.874
	S22.126,11.359,22.126,12.947z M29.669,24.605l2.976-5.439h-2.976V24.605z M25.562,28.672c0.26,0,0.506,0.048,0.744,0.117
	c-0.373-0.23-0.808-0.371-1.279-0.371c-1.345,0-2.436,1.09-2.436,2.436c0,0.472,0.14,0.907,0.371,1.279
	c-0.068-0.238-0.117-0.484-0.117-0.744C22.846,29.889,24.062,28.672,25.562,28.672z"/>
</svg>
