<?xml version="1.0" encoding="utf-8"?>
<!-- Generator: Adobe Illustrator 21.0.0, SVG Export Plug-In . SVG Version: 6.00 Build 0)  -->
<svg version="1.1" id="Layer_1" xmlns="http://www.w3.org/2000/svg" xmlns:xlink="http://www.w3.org/1999/xlink" x="0px" y="0px"
	 viewBox="0 0 300 300" style="enable-background:new 0 0 300 300;" xml:space="preserve">
<style type="text/css">
	.st0{opacity:0.4;fill:#2C3332;enable-background:new    ;}
	.st1{fill:#BABEB7;}
	.st2{fill:#DCE0DA;}
	.st3{clip-path:url(#SVGID_2_);fill:#BABEB7;}
	.st4{fill:#EAECE8;}
	.st5{fill:#4C4C4C;}
	.st6{fill:#8F918D;}
	.st7{fill:#84D3E8;}
	.st8{fill:#6DADBC;}
	.st9{fill:#9AB2B0;}
	.st10{fill:#A4BCB9;}
	.st11{fill:#2C3332;}
	.st12{fill:#F0C419;}
	.st13{fill:#E64C3C;}
	.st14{fill:#4EBA64;}
	@-webkit-keyframes robot_bounce{

        0%{
        transform:translateY(80px)}

        100%{
        transform:translateY(30px)}}

        @keyframes robot_bounce{

        0%{
        transform:translateY(80px)}

        100%{
        transform:translateY(30px)}}

        @-webkit-keyframes shadow{

        0%{ 
        transform:scale(1.5,1.2); 
    }

        100%{
        transform:scale(1,1); 
    }}

        <!--@keyframes shadow{

        0%{
        transform:scale(1.5,1.2); 
        opacity:0.4}

        100%{
        transform:scale(1,1); 
        opacity:0.2}}-->

        @-webkit-keyframes arms_bounce_left{

        0%{
        transform:rotate(0deg)}

        100%{
        transform:rotate(-15deg)}}

        @keyframes arms_bounce_left{

        0%{
        transform:rotate(0deg)}

        100%{
        transform:rotate(-15deg)}}

        @-webkit-keyframes arms_bounce_right{

        0%{
        transform:rotate(0deg)}

        100%{
        transform:rotate(15deg)}}

        @keyframes arms_bounce_right{

        0%{
        transform:rotate(0deg)}

        100%{
        transform:rotate(15deg)}}

        @-webkit-keyframes eyes_blink{

        0%{
        transform:scale(1,1)}

        90%{ 
        transform:scale(1,1)}

        95%{
        transform:scale(0.8,0)}

        100%{
        transform:scale(1,1)}}

        @keyframes eyes_blink{

        0%{
        transform:scale(1,1)}

        90%{
        transform:scale(1,1)}

        95%{
        transform:scale(0.8,0)}

        100%{
        transform:scale(1,1)}}

        #body{
        animation:robot_bounce 1.1s ease-in-out 0s infinite alternate}

        #head{
        animation:robot_bounce 1.1s ease-in-out 0.05s infinite alternate}

        #arms{
        animation:robot_bounce 1.1s ease-in-out 0.1s infinite alternate}

        #arms #left{
        transform-origin:center right; 
        animation:arms_bounce_left 1.1s ease-in-out 0s infinite alternate}

        #arms #right{
        transform-origin:center left; 
        animation:arms_bounce_right 1.1s ease-in-out 0s infinite alternate}

        #eyes ellipse{
        transform-origin:center center; 
        animation:eyes_blink 2s ease-out 0s infinite alternate}

        #hover ellipse{
        transform-origin:center center;
        animation:shadow 1.1s ease-in-out 0s infinite alternate}
</style>
<!--<g id="hover">
	<ellipse id="shadow_2_" class="st0" cx="150" cy="255.9" rx="39.1" ry="13.4"/>
</g>-->
<g id="arms">
	<g id="left">
		<path id="arm_1_" class="st1" d="M99.1,136.3c-22.1-9.5-42.3,13-42.2,23.9c0,2.1,3.4,5,5.1,3.1c5.3-6.3,16.2-15.7,24.4-7.2
			C87,156.7,101.3,137.2,99.1,136.3z"/>
		<g id="hand_1_">
			<path id="shadow" class="st1" d="M46.2,175.6l2.5-3.1c0,0-5-4-4.1-5.5c2-3.4,7-4.2,11.2-1.7c4.2,2.4,6.1,7.2,4.1,10.6
				c-0.8,1.3-3.2,0-3.2,0l-2.5,3.1l0,2.6c3.7,0.4,7.2-0.7,9.5-3c0.5-0.5,2.8-3.2,3.2-3.9c0.8-1.4-3.3-11.7-8.2-14.5
				c-3.7-2.1-13.7-2.2-13.7-2.2s-2.5,2.6-3.9,4.9c-2.5,4.4-1,10.2,3.4,14.3L46.2,175.6z"/>
			<path id="top" class="st2" d="M48.7,172.5c-2.4-2.6-3.2-6-1.6-8.6c2-3.4,7-4.2,11.2-1.7c4.2,2.4,6.1,7.2,4.1,10.6
				c-1.1,2-3.3,3-5.7,3.1l0,2.6c4.6,0.5,8.9-1.3,10.9-4.9c3.1-5.3,0.2-12.7-6.5-16.5c-6.6-3.8-14.5-2.6-17.6,2.7
				c-2.5,4.4-1,10.2,3.4,14.3L48.7,172.5z"/>
		</g>
	</g>
	<g id="right">
		<path id="arm" class="st2" d="M200.9,136.3c22.1-9.5,42.3,13,42.2,23.9c0,2.1-3.4,5-5.1,3.1c-5.3-6.3-16.2-15.7-24.4-7.2
			C213,156.7,198.7,137.2,200.9,136.3z"/>
		<g id="hand">
			<path id="shadow_1_" class="st1" d="M253.8,175.6l-2.5-3.1c0,0,5-4,4.1-5.5c-2-3.4-7-4.2-11.2-1.7c-4.2,2.4-6.1,7.2-4.1,10.6
				c0.8,1.3,3.2,0,3.2,0l2.5,3.1l0,2.6c-3.7,0.4-7.2-0.7-9.5-3c-0.5-0.5-2.8-3.2-3.2-3.9c-0.8-1.4,3.3-11.7,8.2-14.5
				c3.7-2.1,13.7-2.2,13.7-2.2s2.5,2.6,3.9,4.9c2.5,4.4,1,10.2-3.4,14.3L253.8,175.6z"/>
			<path id="top_1_" class="st2" d="M251.3,172.5c2.4-2.6,3.2-6,1.6-8.6c-2-3.4-7-4.2-11.2-1.7c-4.2,2.4-6.1,7.2-4.1,10.6
				c1.1,2,3.3,3,5.7,3.1l0,2.6c-4.6,0.5-8.9-1.3-10.9-4.9c-3.1-5.3-0.2-12.7,6.5-16.5c6.6-3.8,14.5-2.6,17.6,2.7
				c2.5,4.4,1,10.2-3.4,14.3L251.3,172.5z"/>
		</g>
	</g>
</g>
<g id="body">
	<g id="chassie">
		<g id="base">
			<path class="st2" d="M78.6,177.8c0-21,26.6-96.3,71.4-96.3s71.4,75.5,71.4,96.3c0,20.9-60.5,24.8-71.4,24.8
				C139.2,202.6,78.6,198.9,78.6,177.8z"/>
		</g>
		<g id="highlight">
			<g>
				<defs>
					<path id="SVGID_1_" d="M78.6,177.8c0-21,26.6-96.3,71.4-96.3s71.4,75.5,71.4,96.3c0,20.9-60.5,24.8-71.4,24.8
						C139.2,202.6,78.6,198.9,78.6,177.8z"/>
				</defs>
				<clipPath id="SVGID_2_">
					<use xlink:href="#SVGID_1_"  style="overflow:visible;"/>
				</clipPath>
				<path class="st3" d="M218.4,131c0,0-16.8,27-68.9,27c-29.7,0-37.9,6.5-42.5,17.2c-4.5,10.7,0.6,30,42.5,30s0.8,9.6,0.8,9.6
					s-87.3-18.7-87.3-19.1s23.9-94.4,23.9-94.4L218.4,131z"/>
			</g>
		</g>
	</g>
	<g id="progress-indicator">
		<g id="divet">
			<path id="highlight-bottom" class="st4" d="M205,177.5l-2.1-9.3c0,0-21.2,8.6-52.8,8.6S97,168.4,97,168.4l-2,9.1
				c0,0,16.5,8.8,55,8.8S205,177.5,205,177.5z"/>
			<path id="divet-bottom" class="st5" d="M203,176.2l-2-7.3c0,0-20.4,7.9-50.9,7.9c-30.5,0-51.1-7.7-51.1-7.7l-1.9,7.1
				c0,0,15.9,8.2,53.1,8.2C187.3,184.3,203,176.2,203,176.2z"/>
			<polygon id="shadow-right_1_" class="st1" points="201,168.9 202.9,168.1 205,177.5 203,176.2 			"/>
			<polygon id="shadow-left" class="st6" points="98.9,169 97,168.4 95,177.4 97,176.1 			"/>
			<path id="shadow-bottom" class="st1" d="M108.2,179.9l-2.5,1.3c0,0-3.6-0.9-6.5-2c-2.9-1.1-4.2-1.8-4.2-1.8l2-1.3c0,0,1.8,1,5,2
				C105.2,179.1,108.2,179.9,108.2,179.9z"/>
		</g>
		<g id="completed">
			<path id="blue" class="st7" d="M150.1,176.7c-30.5,0-51.1-7.7-51.1-7.7l-1.9,7.1c0,0,15.9,8.2,53.1,8.2c12.7,0,22.8-0.9,30.7-2.2
				l-0.8-7.9C171.9,175.6,161.7,176.7,150.1,176.7z"/>
			<path id="blue-shadow" class="st8" d="M109.9,172.2c-6.9-1.6-10.9-3.1-10.9-3.1l-1.9,7.1c0,0,3.5,1.8,11.2,3.8
				C108.6,177.2,108.7,175.7,109.9,172.2z"/>
		</g>
	</g>
</g>
<g id="head">
	<g id="face">
		<path id="screen-shadow" class="st9" d="M201.9,50.3c-17.7-0.9-39.8-1.4-51.9-1.4c-12.1,0-34.1,0.5-51.9,1.4
			C83.2,51.1,80,57.8,80,81s1.4,38.8,10.8,47.3c15.7,14.3,44.5,21,59.1,21c14.9,0,43.5-6.7,59.2-21c9.4-8.6,10.9-24.2,10.9-47.3
			S216.9,51.1,201.9,50.3z"/>
		<path id="screen" class="st10" d="M90.5,102.5c0,24.2,47,33.7,59.5,33.7c12.5,0,59.5-9.4,59.5-33.7c0-43.9-26.7-54.1-59.5-54.1
			C117.1,48.3,90.5,58.5,90.5,102.5z"/>
		<path id="case_x5F_shadow" class="st4" d="M150,52c12.1,0,34.6,0.5,52.4,1.5c7,0.4,7.9,2.1,8.5,3.1c2.2,3.9,2.5,12.8,2.5,20.2
			c0,21.9-0.1,35.9-7.2,42.3c-13.9,12.6-42.2,19.8-56.3,19.8c-14.1,0-41.8-7.2-55.7-19.8c-7-6.4-7.5-20.4-7.5-42.3
			c0-7.4,0.3-16.4,2.5-20.2c0.6-1.1,1.5-2.7,8.5-3.1C115.5,52.5,137.9,52,150,52 M150,39.5c-35.3,0-70.3,3.1-70.3,26.7
			s0.5,50,10.1,58.7c16,14.5,45.2,21.4,60.2,21.4c15.1,0,44.3-6.8,60.3-21.4c9.6-8.7,10.2-35.2,10.2-58.7S185.3,39.5,150,39.5z"/>
		<path id="case" class="st2" d="M150,55.9c12.1,0,34.6,0.5,52.4,1.5c7,0.4,7.9,2.1,8.5,3.1c2.2,3.9,2.5,12.8,2.5,20.2
			c0,21.9-1.4,35.9-8.5,42.3c-13.9,12.6-40.8,19.3-55,19.3c-14.1,0-41-6.7-54.9-19.3c-7-6.4-8.4-20.4-8.4-42.3
			c0-7.4,0.3-16.4,2.5-20.2c0.6-1.1,1.5-2.7,8.5-3.1C115.5,56.4,137.9,55.9,150,55.9 M150,48c-12.3,0-34.7,0.5-52.8,1.5
			C82,50.3,78.8,57.1,78.8,80.7s1.4,39.5,11,48.2c16,14.5,45.2,21.4,60.2,21.4c15.1,0,44.3-6.8,60.3-21.4
			c9.6-8.7,11.1-24.6,11.1-48.2s-3.3-30.4-18.5-31.2C184.8,48.5,162.3,48,150,48L150,48z"/>
	</g>
	<g id="eyes">
		<ellipse id="left_1_" class="st11" cx="119.7" cy="86.1" rx="2.8" ry="7.5"/>
		<ellipse id="right_1_" class="st11" cx="180.3" cy="86.1" rx="2.8" ry="7.5"/>
	</g>
	<g id="indicators">
		<path id="mount" class="st2" d="M173.9,43.8c0-13.1-10.6-23.8-23.8-23.8c-13.1,0-23.8,10.6-23.8,23.8c0,2,10.6,2,23.8,2
			C163.2,45.8,173.9,45.8,173.9,43.8z"/>
		<g id="leds">
			<circle id="yellow" class="st12" cx="150.2" cy="37.9" r="3.5"/>
			<circle id="red" class="st13" cx="160.8" cy="37.5" r="3.5"/>
			<circle id="green" class="st14" cx="139.2" cy="37.5" r="3.5"/>
		</g>
	</g>
</g>
</svg>
