<?xml version="1.0" standalone="no"?><!DOCTYPE svg PUBLIC "-//W3C//DTD SVG 1.1//EN" "http://www.w3.org/Graphics/SVG/1.1/DTD/svg11.dtd"><svg t="1538293142136" class="icon" style="" viewBox="0 0 1024 1024" version="1.1" xmlns="http://www.w3.org/2000/svg" p-id="11360" xmlns:xlink="http://www.w3.org/1999/xlink" width="32" height="32"><defs><style type="text/css"></style></defs><path d="M822.51 568.905l-189.371-196.8h100.924c28.213 0 42.621-33.858 23.058-54.188L513.441 64.676a2 2 0 0 0-2.882 0L266.878 317.917c-19.562 20.33-5.155 54.188 23.058 54.188H390.86l-189.371 196.8c-19.562 20.33-5.155 54.188 23.058 54.188H448v271.89c0 35.174 27.98 64.492 63.151 64.949 35.735 0.463 64.849-28.365 64.849-63.995V623.093h223.453c28.212 0 42.62-33.858 23.057-54.188z" p-id="11361" fill="#666666"></path></svg>