<?xml version="1.0" encoding="iso-8859-1"?>
<!-- Generator: Adobe Illustrator 19.0.0, SVG Export Plug-In . SVG Version: 6.00 Build 0)  -->
<svg version="1.1" id="Layer_1" xmlns="http://www.w3.org/2000/svg" xmlns:xlink="http://www.w3.org/1999/xlink" x="0px" y="0px"
	 viewBox="0 0 512 512" style="enable-background:new 0 0 512 512;" xml:space="preserve">
<polygon style="fill:#F8F8F9;" points="345.6,0 51.2,0 51.2,512 460.8,512 460.8,115.2 "/>
<polygon style="fill:#EDEDED;" points="345.6,115.2 345.6,0 256,0 256,512 460.8,512 460.8,115.2 "/>
<rect x="51.2" y="230.4" style="fill:#88888F;" width="409.6" height="204.8"/>
<rect x="256" y="230.4" style="fill:#797781;" width="204.8" height="204.8"/>
<g>
	<path style="fill:#F8F8F9;" d="M257.211,371.2v-81.792h18.893V371.2H257.211z"/>
	<path style="fill:#F8F8F9;" d="M297.53,371.2v-81.792h55.526v16.59h-36.634v17.626h30.182v15.322h-30.182V371.2H297.53z"/>
	<path style="fill:#F8F8F9;" d="M223.342,363.136c-6.221,5.76-13.403,8.64-21.542,8.64c-22.506,0-39.283-18.496-39.283-42.049
		c0-23.808,18.938-40.895,40.781-40.895c16.091,0,26.996,7.127,32.718,17.855l-14.054,10.598
		c-4.426-8.006-11.466-11.635-19.354-11.635c-11.633,0-20.966,10.349-20.966,24.769c0,13.74,8.854,24.538,21.772,24.538
		c7.375,0,14.016-3.418,19.931-10.254v-2.533h-15.899v-13.71h31.566v42.74h-15.667v-8.064H223.342z"/>
</g>
<g>
</g>
<g>
</g>
<g>
</g>
<g>
</g>
<g>
</g>
<g>
</g>
<g>
</g>
<g>
</g>
<g>
</g>
<g>
</g>
<g>
</g>
<g>
</g>
<g>
</g>
<g>
</g>
<g>
</g>
</svg>
