<?xml version="1.0" encoding="iso-8859-1"?>
<!-- Generator: Adobe Illustrator 19.0.0, SVG Export Plug-In . SVG Version: 6.00 Build 0)  -->
<svg version="1.1" id="Layer_1" xmlns="http://www.w3.org/2000/svg" xmlns:xlink="http://www.w3.org/1999/xlink" x="0px" y="0px"
	 viewBox="0 0 508 508" style="enable-background:new 0 0 508 508;" xml:space="preserve">
<circle style="fill:#84DBFF;" cx="254" cy="254" r="254"/>
<g>
	<path style="fill:#FFFFFF;" d="M89.6,141.6c-2-1.2-4.4-0.8-5.6,1.2s-0.8,4.4,1.2,5.6l41.2,27.6c0.8,0.4,1.6,0.8,2.4,0.8
		c1.2,0,2.4-0.8,3.2-1.6c1.2-2,0.8-4.4-1.2-5.6L89.6,141.6z"/>
	<path style="fill:#FFFFFF;" d="M385.2,338.8c-2-1.2-4.4-0.8-5.6,1.2s-0.8,4.4,1.2,5.6l37.6,25.2c0.8,0.4,1.6,0.8,2.4,0.8
		c1.2,0,2.4-0.8,3.2-1.6c1.2-2,0.8-4.4-1.2-5.6L385.2,338.8z"/>
	<path style="fill:#FFFFFF;" d="M368.8,91.6c1.2-2,0.8-4.4-1.2-5.6s-4.4-0.8-5.6,1.2l-27.6,41.2c-1.2,2-0.8,4.4,1.2,5.6
		c0.8,0.4,1.6,0.8,2.4,0.8c1.2,0,2.4-0.8,3.2-1.6L368.8,91.6z"/>
	<path style="fill:#FFFFFF;" d="M214,55.6c-2,0.4-3.6,2.4-3.2,4.8l9.6,48.4c0.4,2,2,3.2,4,3.2c0.4,0,0.4,0,0.8,0
		c2-0.4,3.6-2.4,3.2-4.8l-9.6-48.4C218.4,56.4,216.4,55.2,214,55.6z"/>
	<path style="fill:#FFFFFF;" d="M398.4,227.2c0.4,2,2,3.2,4,3.2c0.4,0,0.4,0,0.8,0l48.4-9.6c2-0.4,3.6-2.4,3.2-4.8
		c-0.4-2-2.4-3.6-4.8-3.2l-48.4,9.6C399.2,223.2,397.6,225.2,398.4,227.2z"/>
	<path style="fill:#FFFFFF;" d="M106,285.6c-0.4-2-2.4-3.6-4.8-3.2l-44.4,8.8c-2,0.4-3.6,2.4-3.2,4.8c0.4,2,2,3.2,4,3.2
		c0.4,0,0.4,0,0.8,0l44.4-9.2C104.8,289.6,106.4,287.6,106,285.6z"/>
	<path style="fill:#FFFFFF;" d="M56.8,220.8l48.4,9.6c0.4,0,0.4,0,0.8,0c2,0,3.6-1.2,4-3.2s-0.8-4.4-3.2-4.8l-48.4-9.6
		c-2-0.4-4.4,0.8-4.8,3.2C53.2,218.4,54.4,220.4,56.8,220.8z"/>
	<path style="fill:#FFFFFF;" d="M451.2,291.2l-44.4-8.8c-2-0.4-4.4,0.8-4.8,3.2c-0.4,2,0.8,4.4,3.2,4.8l44.4,8.8c0.4,0,0.4,0,0.8,0
		c2,0,3.6-1.2,4-3.2C454.8,293.6,453.6,291.6,451.2,291.2z"/>
	<path style="fill:#FFFFFF;" d="M294,55.6c-2-0.4-4.4,0.8-4.8,3.2l-9.6,48.4c-0.4,2,0.8,4.4,3.2,4.8c0.4,0,0.4,0,0.8,0
		c2,0,3.6-1.2,4-3.2l9.6-48.4C297.6,58,296,56,294,55.6z"/>
	<path style="fill:#FFFFFF;" d="M146,87.2c-0.8-1.2-2.4-2-4-1.6c-0.4,0-1.2,0.4-1.6,0.4c-2,1.2-2.4,3.6-1.2,5.6l27.6,41.2
		c0.8,1.2,2,1.6,3.2,1.6l0,0l0,0c0.8,0,1.6-0.4,2.4-0.8c2-1.2,2.4-3.6,1.2-5.6L146,87.2z"/>
	<path style="fill:#FFFFFF;" d="M376.4,174.4c0.8,1.2,2,1.6,3.2,1.6c0.8,0,1.6-0.4,2.4-0.8l41.2-27.6c2-1.2,2.4-3.6,1.2-5.6
		c-1.2-2-3.6-2.4-5.6-1.2l-41.2,27.6C375.6,170,375.2,172.4,376.4,174.4z"/>
	<path style="fill:#FFFFFF;" d="M122.8,338.8L85.2,364c-2,1.2-2.4,3.6-1.2,5.6c0.8,1.2,2,1.6,3.2,1.6c0.8,0,1.6-0.4,2.4-0.8
		l37.6-25.2c2-1.2,2.4-3.6,1.2-5.6C127.2,338,124.8,337.6,122.8,338.8z"/>
	<path style="fill:#FFFFFF;" d="M67.2,183.2l45.6,18.8c0.4,0.4,1.2,0.4,1.6,0.4c1.6,0,3.2-0.8,3.6-2.4c0.8-2,0-4.4-2-5.2L70.4,176
		c-2-0.8-4.4,0-5.2,2C64.4,180,65.2,182,67.2,183.2z"/>
	<path style="fill:#FFFFFF;" d="M440.8,329.2l-42-17.2c-2-0.8-4.4,0-5.2,2c-0.8,2,0,4.4,2,5.2l42,17.2c0.4,0.4,1.2,0.4,1.6,0.4
		c1.6,0,3.2-0.8,3.6-2.4C443.6,332,442.8,330,440.8,329.2z"/>
	<path style="fill:#FFFFFF;" d="M332,67.2c-2-0.8-4.4,0-5.2,2L308,114.8c-0.8,2,0,4.4,2,5.2c0.4,0.4,1.2,0.4,1.6,0.4
		c1.6,0,3.2-0.8,3.6-2.4L334,72.4C335.2,70.4,334.4,68,332,67.2z"/>
	<path style="fill:#FFFFFF;" d="M180.8,69.2c-0.8-2-3.2-2.8-5.2-2s-2.8,3.2-2,5.2l18.8,45.6c0.8,1.6,2,2.4,3.6,2.4
		c0.4,0,1.2,0,1.6-0.4c2-0.8,2.8-3.2,2-5.2L180.8,69.2z"/>
	<path style="fill:#FFFFFF;" d="M390,199.6c0.8,1.6,2,2.4,3.6,2.4c0.4,0,1.2,0,1.6-0.4l45.6-18.8c2-0.8,2.8-3.2,2-5.2
		s-3.2-2.8-5.2-2L392,194.4C390,195.6,389.2,197.6,390,199.6z"/>
	<path style="fill:#FFFFFF;" d="M114.4,314c-0.8-2-3.2-2.8-5.2-2l-42,17.2c-2,0.8-2.8,3.2-2,5.2c0.8,1.6,2,2.4,3.6,2.4
		c0.4,0,1.2,0,1.6-0.4l42-17.2C114.4,318,115.2,316,114.4,314z"/>
	<path style="fill:#FFFFFF;" d="M254,51.6c-2,0-4,1.6-4,4v77.2c0,2,1.6,4,4,4s4-1.6,4-4V55.6C258,53.6,256,51.6,254,51.6z"/>
	<path style="fill:#FFFFFF;" d="M454.4,252h-77.2c-2,0-4,1.6-4,4c0,2,1.6,4,4,4h77.2c2,0,4-1.6,4-4C458.4,254,456.4,252,454.4,252z"
		/>
	<path style="fill:#FFFFFF;" d="M126.8,252H53.6c-2,0-4,1.6-4,4c0,2,1.6,4,4,4h73.2c2,0,4-1.6,4-4C130.8,254,129.2,252,126.8,252z"
		/>
	<path style="fill:#FFFFFF;" d="M115.2,111.6c-1.6-1.6-4-1.6-5.6,0s-1.6,4,0,5.6l51.2,51.2c0.8,0.8,1.6,1.2,2.8,1.2s2-0.4,2.8-1.2
		c1.6-1.6,1.6-4,0-5.6L115.2,111.6z"/>
	<path style="fill:#FFFFFF;" d="M398.4,111.6c-1.6-1.6-4-1.6-5.6,0L342,162.4c-1.6,1.6-1.6,4,0,5.6c0.8,0.8,1.6,1.2,2.8,1.2
		c1.2,0,2-0.4,2.8-1.2l51.2-51.2C400,115.6,400,113.2,398.4,111.6z"/>
	<path style="fill:#FFFFFF;" d="M290.8,380.4c0,20.4-16.4,36.8-36.8,36.8s-36.8-16.4-36.8-36.8S254,246.8,254,246.8
		S290.8,360,290.8,380.4z"/>
</g>
<circle style="fill:#FF7058;" cx="254" cy="380.4" r="21.6"/>
<g>
</g>
<g>
</g>
<g>
</g>
<g>
</g>
<g>
</g>
<g>
</g>
<g>
</g>
<g>
</g>
<g>
</g>
<g>
</g>
<g>
</g>
<g>
</g>
<g>
</g>
<g>
</g>
<g>
</g>
</svg>
