<?xml version="1.0" encoding="iso-8859-1"?>
<!-- Generator: Adobe Illustrator 19.0.0, SVG Export Plug-In . SVG Version: 6.00 Build 0)  -->
<svg version="1.1" id="Layer_1" xmlns="http://www.w3.org/2000/svg" xmlns:xlink="http://www.w3.org/1999/xlink" x="0px" y="0px"
	 viewBox="0 0 455 455" style="enable-background:new 0 0 455 455;" xml:space="preserve">
<g>
	<polygon style="fill:#46F8FF;" points="285.784,111.716 285.784,0 227.5,0 227.5,277.5 397.5,277.5 397.5,111.716 	"/>
	<rect x="57.5" style="fill:#9BFBFF;" width="170" height="277.5"/>
	<path style="fill:#FFDA44;" d="M225.519,395.86c-3.901-1.859-7.231-4.305-9.99-7.335c-2.761-3.029-4.905-6.494-6.435-10.396
		c-1.53-3.899-2.295-7.92-2.295-12.06c0-4.199,0.794-8.249,2.385-12.15c1.589-3.899,3.81-7.335,6.66-10.305
		c2.849-2.97,6.224-5.34,10.125-7.11c0.504-0.229,1.015-0.441,1.531-0.64V277.5h-170V455h170v-58.3
		C226.83,396.442,226.166,396.169,225.519,395.86z M193.75,398.11h-14.76v-38.25l-13.86,27.81h-7.92l-13.86-27.81v38.25h-14.76
		v-63.9h16.02l16.56,33.391l16.65-33.391h15.93V398.11z"/>
	<path style="fill:#FFDA44;" d="M221.829,366.25c0,2.461,0.36,4.846,1.08,7.155c0.72,2.311,1.785,4.365,3.195,6.165
		c0.43,0.549,0.902,1.052,1.396,1.534v-29.711c-0.526,0.51-1.03,1.044-1.486,1.627c-1.411,1.8-2.461,3.855-3.15,6.165
		C222.174,361.495,221.829,363.85,221.829,366.25z"/>
	<path style="fill:#FFCD00;" d="M227.5,335.864c3.476-1.341,7.225-2.014,11.249-2.014c4.739,0,9.059,0.931,12.96,2.789
		c3.899,1.861,7.229,4.32,9.99,7.381c2.759,3.06,4.89,6.54,6.39,10.439c1.499,3.901,2.25,7.861,2.25,11.88
		c0,4.201-0.796,8.251-2.385,12.15c-1.591,3.9-3.796,7.335-6.615,10.305c-2.821,2.97-6.181,5.355-10.08,7.155
		c-3.9,1.8-8.16,2.7-12.78,2.7c-3.953,0-7.61-0.656-10.979-1.95V455h170V277.5h-170V335.864z M290.319,334.21l15.03,45.36
		l14.85-45.36h15.57l-24.21,63.9h-12.42l-24.479-63.9H290.319z"/>
	<path style="fill:#FFCD00;" d="M231.369,383.889c2.1,1.08,4.5,1.62,7.2,1.62c2.819,0,5.278-0.569,7.38-1.71
		c2.1-1.139,3.839-2.624,5.22-4.455c1.38-1.829,2.414-3.899,3.104-6.21c0.689-2.309,1.035-4.664,1.035-7.064
		c0-2.46-0.359-4.845-1.08-7.155c-0.72-2.309-1.8-4.35-3.239-6.12c-1.44-1.769-3.195-3.18-5.266-4.229
		c-2.069-1.05-4.455-1.575-7.154-1.575c-2.821,0-5.266,0.556-7.335,1.665c-1.4,0.751-2.636,1.672-3.734,2.739v29.711
		C228.626,382.203,229.908,383.139,231.369,383.889z"/>
	<polygon style="fill:#00D7DF;" points="397.5,111.716 285.784,0 285.784,111.716 	"/>
	<polygon style="fill:#005ECE;" points="161.17,367.6 144.61,334.21 128.59,334.21 128.59,398.11 143.35,398.11 143.35,359.86 
		157.21,387.669 165.13,387.669 178.99,359.86 178.99,398.11 193.75,398.11 193.75,334.21 177.82,334.21 	"/>
	<path style="fill:#005ECE;" d="M215.844,343.615c-2.851,2.97-5.071,6.405-6.66,10.305c-1.59,3.901-2.385,7.951-2.385,12.15
		c0,4.14,0.765,8.16,2.295,12.06c1.53,3.901,3.674,7.366,6.435,10.396c2.759,3.03,6.089,5.476,9.99,7.335
		c0.647,0.309,1.31,0.582,1.981,0.84c3.368,1.294,7.025,1.95,10.979,1.95c4.62,0,8.88-0.9,12.78-2.7
		c3.899-1.8,7.259-4.186,10.08-7.155c2.819-2.97,5.024-6.404,6.615-10.305c1.589-3.899,2.385-7.949,2.385-12.15
		c0-4.019-0.751-7.979-2.25-11.88c-1.5-3.899-3.631-7.38-6.39-10.439c-2.761-3.061-6.091-5.52-9.99-7.381
		c-3.901-1.858-8.221-2.789-12.96-2.789c-4.024,0-7.773,0.673-11.249,2.014c-0.516,0.199-1.027,0.412-1.531,0.64
		C222.068,338.275,218.693,340.645,215.844,343.615z M227.5,351.393c1.098-1.066,2.334-1.988,3.734-2.739
		c2.069-1.109,4.514-1.665,7.335-1.665c2.699,0,5.085,0.525,7.154,1.575c2.07,1.05,3.825,2.461,5.266,4.229
		c1.439,1.771,2.52,3.812,3.239,6.12c0.721,2.311,1.08,4.695,1.08,7.155c0,2.4-0.346,4.756-1.035,7.064
		c-0.69,2.311-1.725,4.381-3.104,6.21c-1.381,1.831-3.12,3.316-5.22,4.455c-2.102,1.141-4.561,1.71-7.38,1.71
		c-2.7,0-5.101-0.54-7.2-1.62c-1.461-0.75-2.743-1.687-3.869-2.785c-0.494-0.482-0.966-0.985-1.396-1.534
		c-1.41-1.8-2.475-3.854-3.195-6.165c-0.72-2.31-1.08-4.694-1.08-7.155c0-2.399,0.345-4.755,1.035-7.064
		c0.689-2.31,1.739-4.365,3.15-6.165C226.47,352.437,226.974,351.904,227.5,351.393z"/>
	<polygon style="fill:#005ECE;" points="311.56,398.11 335.77,334.21 320.199,334.21 305.35,379.57 290.319,334.21 274.66,334.21 
		299.14,398.11 	"/>
</g>
<g>
</g>
<g>
</g>
<g>
</g>
<g>
</g>
<g>
</g>
<g>
</g>
<g>
</g>
<g>
</g>
<g>
</g>
<g>
</g>
<g>
</g>
<g>
</g>
<g>
</g>
<g>
</g>
<g>
</g>
</svg>
