<?xml version="1.0" encoding="iso-8859-1"?>
<!-- Generator: Adobe Illustrator 19.0.0, SVG Export Plug-In . SVG Version: 6.00 Build 0)  -->
<svg version="1.1" id="Layer_1" xmlns="http://www.w3.org/2000/svg" xmlns:xlink="http://www.w3.org/1999/xlink" x="0px" y="0px"
	 viewBox="0 0 512 512" style="enable-background:new 0 0 512 512;" xml:space="preserve">
<g>
	<polygon style="fill:#BDC3C7;" points="406.069,105.931 300.138,105.931 300.138,0 	"/>
	<polygon style="fill:#285680;" points="123.586,406.069 512,406.069 512,194.207 123.586,194.207 	"/>
	<path style="fill:#FFFFFF;" d="M194.207,379.586c-24.338,0-44.138-19.8-44.138-44.138c0-4.873,3.955-8.828,8.828-8.828
		c4.873,0,8.828,3.955,8.828,8.828c0,14.601,11.882,26.483,26.483,26.483c14.601,0,26.483-11.882,26.483-26.483
		s-11.882-26.483-26.483-26.483c-24.338,0-44.138-19.8-44.138-44.138c0-24.338,19.8-44.138,44.138-44.138s44.138,19.8,44.138,44.138
		c0,4.873-3.955,8.828-8.828,8.828s-8.828-3.955-8.828-8.828c0-14.601-11.882-26.483-26.483-26.483
		c-14.601,0-26.483,11.882-26.483,26.483c0,14.601,11.882,26.483,26.483,26.483c24.338,0,44.138,19.8,44.138,44.138
		S218.545,379.586,194.207,379.586"/>
	<polygon style="fill:#ECF0F1;" points="123.586,406.069 123.586,194.207 406.069,194.207 406.069,105.931 300.138,105.931 
		300.138,0 0,0 0,512 406.069,512 406.069,406.069 	"/>
	<g>
		<path style="fill:#FFFFFF;" d="M317.793,238.345c-24.338,0-44.138,23.755-44.138,52.965s19.8,52.966,44.138,52.966
			c24.338,0,44.138-23.755,44.138-52.966S342.131,238.345,317.793,238.345 M317.793,361.931c-34.074,0-61.793-31.682-61.793-70.621
			s27.719-70.621,61.793-70.621s61.793,31.682,61.793,70.621S351.868,361.931,317.793,361.931"/>
		<path style="fill:#FFFFFF;" d="M361.931,379.586c-16.87,0-31.444-11.997-34.657-28.522c-0.936-4.785,2.189-9.419,6.974-10.355
			c4.811-0.945,9.419,2.189,10.355,6.974c1.607,8.254,8.889,14.248,17.329,14.248c4.873,0,8.828,3.955,8.828,8.828
			C370.759,375.631,366.804,379.586,361.931,379.586"/>
		<path style="fill:#FFFFFF;" d="M476.69,379.586h-70.621c-4.873,0-8.828-3.955-8.828-8.828V229.517
			c0-4.873,3.955-8.828,8.828-8.828s8.828,3.955,8.828,8.828v132.414h61.793c4.873,0,8.828,3.955,8.828,8.828
			C485.517,375.631,481.562,379.586,476.69,379.586"/>
	</g>
</g>
<g>
</g>
<g>
</g>
<g>
</g>
<g>
</g>
<g>
</g>
<g>
</g>
<g>
</g>
<g>
</g>
<g>
</g>
<g>
</g>
<g>
</g>
<g>
</g>
<g>
</g>
<g>
</g>
<g>
</g>
</svg>
