<?xml version="1.0" encoding="iso-8859-1"?>
<!-- Generator: Adobe Illustrator 19.0.0, SVG Export Plug-In . SVG Version: 6.00 Build 0)  -->
<svg version="1.1" id="Layer_1" xmlns="http://www.w3.org/2000/svg" xmlns:xlink="http://www.w3.org/1999/xlink" x="0px" y="0px"
	 viewBox="0 0 512 512" style="enable-background:new 0 0 512 512;" xml:space="preserve">
<path style="fill:#314E55;" d="M511.867,234.008c-0.061-0.969-0.25-1.901-0.57-2.818c-0.119-0.341-0.205-0.677-0.357-1.003
	c-0.514-1.104-1.162-2.151-2.053-3.046c-0.006-0.006-0.01-0.014-0.01-0.014L448,166.25v-59.583c0-0.232-0.118-0.44-0.133-0.672
	c-0.06-0.941-0.242-1.846-0.546-2.741c-0.117-0.342-0.206-0.676-0.357-1.005c-0.519-1.133-1.173-2.21-2.088-3.124l-96-96
	c-0.919-0.919-1.998-1.575-3.135-2.095c-0.318-0.146-0.639-0.233-0.97-0.345c-0.912-0.315-1.839-0.5-2.802-0.559
	C341.75,0.112,341.553,0,341.333,0H74.667C68.776,0,64,4.776,64,10.667V166.25L3.128,227.122c0,0-0.009,0.013-0.016,0.019
	c-0.891,0.894-1.539,1.941-2.053,3.046c-0.152,0.326-0.238,0.661-0.357,1.003c-0.32,0.917-0.509,1.849-0.57,2.818
	C0.118,234.238,0,234.432,0,234.667v202.667C0,443.224,4.776,448,10.667,448H64v53.333C64,507.224,68.776,512,74.667,512h362.667
	c5.891,0,10.667-4.776,10.667-10.667V448h53.333c5.891,0,10.667-4.776,10.667-10.667V234.667
	C512,234.432,511.882,234.238,511.867,234.008z"/>
<polygon style="fill:#EAEAEA;" points="475.583,224 448,224 448,196.417 "/>
<polygon style="fill:#D8D8D8;" points="411.583,96 352,96 352,36.417 "/>
<g>
	<path style="fill:#EAEAEA;" d="M85.333,21.333h245.333v85.333c0,5.891,4.776,10.667,10.667,10.667h85.333v53.333V224H85.333
		v-53.333V21.333z"/>
	<polygon style="fill:#EAEAEA;" points="64,196.417 64,224 36.417,224 	"/>
	<rect x="85.333" y="448" style="fill:#EAEAEA;" width="341.333" height="42.667"/>
</g>
<polygon style="fill:#5ECB66;" points="490.667,426.667 21.333,426.667 21.333,245.333 74.667,245.333 437.333,245.333 
	490.667,245.333 "/>
<path style="fill:#314E55;" d="M361.173,342.858c2.357-1.631,4.504-3.776,6.438-6.431c1.934-2.656,3.536-5.888,4.805-9.707
	c1.27-3.809,1.904-8.181,1.904-13.142c0-6.41-0.907-11.904-2.72-16.501c-1.814-4.596-4.322-8.405-7.525-11.423
	c-3.203-3.019-7.042-5.227-11.515-6.624c-4.473-1.387-9.369-2.081-14.687-2.081h-36.63v128.384h21.034V350.57h12.149l19.947,54.763
	h22.848l-23.029-59.115C356.489,345.611,358.817,344.501,361.173,342.858z"/>
<path style="fill:#5ECB66;" d="M347.755,329.621c-3.445,3.328-7.827,4.992-13.146,4.992h-12.331v-39.531h12.331
	c2.176,0,4.352,0.299,6.528,0.907c2.176,0.608,4.141,1.631,5.893,3.082c1.753,1.451,3.173,3.445,4.262,5.984
	c1.088,2.539,1.631,5.738,1.631,9.611C352.922,321.313,351.2,326.303,347.755,329.621z"/>
<polygon style="fill:#314E55;" points="228.71,276.949 196.795,405.333 218.555,405.333 225.083,378.133 258.811,378.133 
	265.158,405.333 287.824,405.333 256.453,276.949 "/>
<polygon style="fill:#5ECB66;" points="227.803,361.089 241.766,297.44 242.491,297.44 256.09,361.089 "/>
<polygon style="fill:#314E55;" points="200.059,276.949 130.426,276.949 130.426,295.445 154.544,295.445 154.544,405.333 
	175.941,405.333 175.941,295.445 200.059,295.445 "/>
<g>
</g>
<g>
</g>
<g>
</g>
<g>
</g>
<g>
</g>
<g>
</g>
<g>
</g>
<g>
</g>
<g>
</g>
<g>
</g>
<g>
</g>
<g>
</g>
<g>
</g>
<g>
</g>
<g>
</g>
</svg>
