<?xml version="1.0" standalone="no"?><!DOCTYPE svg PUBLIC "-//W3C//DTD SVG 1.1//EN" "http://www.w3.org/Graphics/SVG/1.1/DTD/svg11.dtd"><svg t="1493711717823" class="icon" style="" viewBox="0 0 1024 1024" version="1.1" xmlns="http://www.w3.org/2000/svg" p-id="5726" xmlns:xlink="http://www.w3.org/1999/xlink" width="600" height="600"><defs><style type="text/css"></style></defs><path d="M688.443086 435.453309l-31.837714 55.14544a7.958661 7.958661 0 1 0 13.785592 7.959684l31.837714-55.145439a7.958661 7.958661 0 0 0-2.912953-10.872639 7.958661 7.958661 0 0 0-10.872639 2.912954z m205.87979-158.332603h-59.321868L773.579151 383.507511l-68.931032-39.797399 38.444847-66.589406H130.212616c-17.583183 0-31.837714 14.254531-31.837714 31.838739V834.285312c0 17.583183 14.254531 31.837714 31.837714 31.837714h764.11026c17.583183 0 31.837714-14.254531 31.837714-31.837714V308.958421c0.001024-17.583183-14.253508-31.837714-31.837714-31.837715z m-220.237734 278.714896c-0.818084 1.417057-2.065177 2.351865-3.430015 3.023534l0.065528 0.131057-51.451261 25.439455-0.064505-0.131057c-2.303742 1.133441-5.052874 1.269618-7.442622-0.11058-2.390772-1.380197-3.648103-3.828307-3.817045-6.390068l-0.146415 0.009215-3.694179-57.278193 0.146416-0.009215c-0.100341-1.518422 0.086006-3.065513 0.903067-4.48257l91.534324-158.541476 68.931032 39.797399-91.534325 158.542499z" fill="#FFFFFF" p-id="5727"></path><path d="M193.889068 507.945414c-35.167389 0-63.675428 28.509063-63.675428 63.676452 0 35.166365 28.509063 63.675428 63.675428 63.675429 35.167389 0 63.675428-28.509063 63.675429-63.675429 0-35.167389-28.508039-63.676452-63.675429-63.676452z m0 87.554482c-13.187643 0-23.87803-10.691411-23.878029-23.87803 0-13.187643 10.690387-23.879054 23.878029-23.879053s23.87803 10.691411 23.87803 23.879053c0 13.186619-10.690387 23.87803-23.87803 23.87803z" fill="#86AEDD" p-id="5728"></path><path d="M146.131985 468.148015h95.514167v-31.837714H146.131985v31.837714z m39.797399-79.594797H146.131985v31.837714h39.797399v-31.837714z m15.918345 0v31.837714h39.797399v-31.837714h-39.797399z" fill="#EE6A56" p-id="5729"></path><path d="M146.131985 675.094693v31.838738h95.514167v-31.838738H146.131985z m0 79.594798h95.514167v-31.837714H146.131985v31.837714z" fill="#85AB70" p-id="5730"></path><path d="M789.046987 356.715504h57.51983v429.811701H305.32158V356.715504h421.85304l-22.526501-13.005392 1.682244-2.913977H98.374902v15.919369h191.027309v429.811701H98.374902v15.918345H862.486186v-461.649415h-64.247781l-9.191418 15.919369z m105.275889 183.067624a7.960708 7.960708 0 0 0-7.959685 7.959685v47.757083a7.960708 7.960708 0 0 0 15.919369 0v-47.757083a7.959685 7.959685 0 0 0-7.959684-7.959685z" fill="" p-id="5731"></path><path d="M894.322876 245.282992h-40.940055l23.669157-40.996368c4.39554-7.613611 1.787704-17.349737-5.826931-21.745277l11.938503-20.679412c6.593821-11.420417 2.680532-26.025117-8.739885-32.617914-11.420417-6.593821-26.025117-2.680532-32.618939 8.739885l-11.939527 20.679412c-7.613611-4.396564-17.349737-1.787704-21.7463 5.825907l-35.817557 62.038236-10.828611 18.755531H130.212616c-35.167389 0-63.675428 28.509063-63.675428 63.676453V834.285312c0 35.166365 28.509063 63.675428 63.675428 63.675428h764.11026c35.167389 0 63.675428-28.509063 63.675428-63.675428V308.958421c0.001024-35.166365-28.508039-63.675428-63.675428-63.675429z m31.838738 589.001296c0 17.583183-14.254531 31.837714-31.837714 31.837714H130.212616c-17.583183 0-31.837714-14.254531-31.837714-31.837714V308.958421c0-17.583183 14.254531-31.838738 31.837714-31.838738h612.88035l-38.44587 66.589406 68.931031 39.797398 61.422881-106.386804h59.321868c17.583183 0 31.837714 14.254531 31.837714 31.838738v525.325867zM605.154111 516.03718c-0.818084 1.417057-1.004432 2.964148-0.903067 4.48257l-0.146416 0.009215 3.694179 57.278193 0.146415-0.009215c0.169965 2.561761 1.426272 5.010895 3.817045 6.390068 2.389748 1.380197 5.13888 1.244021 7.442622 0.11058l0.064505 0.131057 51.451261-25.439455-0.065528-0.131057c1.364839-0.672693 2.611931-1.6075 3.430015-3.023534l91.534325-158.542499-68.931032-39.797399-91.534324 158.541476z m97.075591-72.62521l-31.837714 55.14544a7.958661 7.958661 0 1 1-13.785592-7.959685l31.837714-55.14544a7.958661 7.958661 0 1 1 13.785592 7.959685z" fill="" p-id="5732"></path></svg>