<?xml version="1.0" standalone="no"?><!DOCTYPE svg PUBLIC "-//W3C//DTD SVG 1.1//EN" "http://www.w3.org/Graphics/SVG/1.1/DTD/svg11.dtd"><svg t="1493711674108" class="icon" style="" viewBox="0 0 1024 1024" version="1.1" xmlns="http://www.w3.org/2000/svg" p-id="4762" xmlns:xlink="http://www.w3.org/1999/xlink" width="600" height="600"><defs><style type="text/css"></style></defs><path d="M512.268258 101.22847c-226.863295 0-410.77153 183.909258-410.77153 410.77153s183.909258 410.77153 410.77153 410.77153 410.77153-183.909258 410.77153-410.77153S739.130529 101.22847 512.268258 101.22847z m0 515.649128c-57.922217 0-104.877598-46.954357-104.877598-104.877598 0-57.922217 46.955381-104.877598 104.877598-104.877598s104.877598 46.955381 104.877598 104.877598-46.955381 104.877598-104.877598 104.877598z m0-174.796679c-38.614811 0-69.918057 31.30427-69.918057 69.919081s31.30427 69.918057 69.918057 69.918057c38.614811 0 69.918057-31.303246 69.918057-69.918057 0-38.614811-31.303246-69.919081-69.918057-69.919081z" fill="#FFFFFF" p-id="4763"></path><path d="M604.459916 562.040347z m-18.247684-124.411281l0.420817 0.420816c-0.069624-0.069624-0.136177-0.141296-0.204777-0.21092-0.071672-0.070648-0.144368-0.138225-0.21604-0.209896z m18.260995 24.353112z m-166.364983-24.142192l-0.083959 0.086006 0.298975-0.296926c-0.070648 0.071672-0.143344 0.139248-0.215016 0.21092z m-30.717584 74.160014c0-17.221751 4.151855-33.473883 11.507447-47.810325-47.357768 76.962388-125.12493 266.30643-125.12493 266.306429S483.102884 652.734062 560.070392 605.37527c-14.334395 7.353544-30.583455 11.503352-47.802134 11.503352-57.922217-0.001024-104.877598-46.956405-104.877598-104.878622z m42.131857-84.046651z m125.490458 0z m-60.140977-20.798182z" fill="#EE6A56" p-id="4764"></path><path d="M512.268258 616.877598c-57.8915 0-104.826403-46.906235-104.876574-104.786472-0.024573 26.894396 10.213256 53.796983 30.71656 74.316668 40.957461 40.990225 107.362567 40.990225 148.320028 0 1.462108-1.463132 3.006127-3.203737 4.619771-5.182907-19.221399 21.855856-47.387461 35.652711-78.779785 35.652711z m218.496104-323.373702S543.061609 370.671061 465.469531 418.125074c14.088662-7.037164 29.979362-11.002672 46.798727-11.002672 57.922217 0 104.877598 46.955381 104.877598 104.877598 0 17.83813-4.459021 34.632921-12.314269 49.34001 47.274833-76.165805 125.932776-267.836114 125.932775-267.836114z" fill="#86AEDD" p-id="4765"></path><path d="M512.268258 136.188011c-207.55589 0-375.813013 168.256099-375.813013 375.811989s168.257123 375.813013 375.813013 375.813013S888.080247 719.55589 888.080247 512 719.824148 136.188011 512.268258 136.188011z m0 734.145232c-197.901675 0-358.333243-160.430544-358.333243-358.333243 0-197.901675 160.431568-358.332219 358.333243-358.332219s358.333243 160.430544 358.333243 358.332219c-0.001024 197.901675-160.431568 358.333243-358.333243 358.333243z m0-96.138737a8.739885 8.739885 0 0 0-8.739885 8.739885v34.959541a8.739885 8.739885 0 0 0 17.47977 0v-34.959541a8.739885 8.739885 0 0 0-8.739885-8.739885z m0-568.088438a8.739885 8.739885 0 0 0-8.739885 8.739885v34.959541a8.739885 8.739885 0 0 0 17.47977 0v-34.959541a8.739885 8.739885 0 0 0-8.739885-8.739885z m305.893932 305.893932h-34.959541a8.739885 8.739885 0 0 0-8.739885 8.739885 8.739885 8.739885 0 0 0 8.739885 8.739885h34.959541a8.739885 8.739885 0 0 0 0-17.47977z m-568.088438 0h-34.959541a8.739885 8.739885 0 0 0 0 17.47977h34.959541a8.739885 8.739885 0 0 0 0-17.47977z" fill="" p-id="4766"></path><path d="M512.268258 407.122402c-57.922217 0-104.877598 46.955381-104.877598 104.877598s46.955381 104.878622 104.877598 104.878622 104.877598-46.955381 104.877598-104.878622c0-57.922217-46.955381-104.877598-104.877598-104.877598z m0 174.795655c-38.614811 0-69.918057-31.303246-69.918057-69.918057 0-38.614811 31.30427-69.919081 69.918057-69.919081 38.614811 0 69.918057 31.30427 69.918057 69.919081s-31.303246 69.918057-69.918057 69.918057z m0-515.649127c-246.170701 0-445.73107 199.560369-445.73107 445.73107s199.560369 445.73107 445.73107 445.73107 445.73107-199.560369 445.73107-445.73107S758.437935 66.26893 512.268258 66.26893z m0 856.5026c-226.863295 0-410.77153-183.909258-410.77153-410.77153S285.404963 101.22847 512.268258 101.22847s410.77153 183.909258 410.77153 410.77153-183.909258 410.77153-410.77153 410.77153z" fill="" p-id="4767"></path></svg>