<?xml version="1.0" standalone="no"?><!DOCTYPE svg PUBLIC "-//W3C//DTD SVG 1.1//EN" "http://www.w3.org/Graphics/SVG/1.1/DTD/svg11.dtd"><svg t="1493711537525" class="icon" style="" viewBox="0 0 1024 1024" version="1.1" xmlns="http://www.w3.org/2000/svg" p-id="1628" xmlns:xlink="http://www.w3.org/1999/xlink" width="600" height="600"><defs><style type="text/css"></style></defs><path d="M261.321132 186.901051c-0.89078 0.689075-1.771322 1.39146-2.656982 2.087702a411.466748 411.466748 0 0 0-15.812885 13.080135c-0.807846 0.703409-1.626954 1.394532-2.42968 2.104085a413.427488 413.427488 0 0 0-48.543427 50.8871c-0.896924 1.117059-1.771322 2.253572-2.656983 3.38087a412.299166 412.299166 0 0 0-11.399939 15.212888c-0.944022 1.321836-1.895212 2.637529-2.823876 3.971651a412.116915 412.116915 0 0 0-11.308813 17.125506c-0.447438 0.715696-0.922521 1.410914-1.364839 2.128657a410.633305 410.633305 0 0 0-11.943623 20.675317c-0.140272 0.260067-0.264162 0.529349-0.404434 0.789415-3.427968 6.397236-6.660374 12.912218-9.753532 19.50604-0.847777 1.808181-1.648455 3.642984-2.470635 5.4655a407.902603 407.902603 0 0 0-6.731022 15.783192 414.545571 414.545571 0 0 0-2.515687 6.379829 408.913178 408.913178 0 0 0-5.914985 16.609468c-0.596925 1.792823-1.241973 3.562097-1.815349 5.364135-2.358008 7.413954-4.542979 14.904699-6.485289 22.493737-0.146416 0.572352-0.255971 1.160062-0.40034 1.735486a409.027853 409.027853 0 0 0-4.644343 20.880093c-0.467916 2.390772-0.860064 4.807142-1.288048 7.212248a403.949382 403.949382 0 0 0-3.585647 24.296799c-0.636857 5.468572-1.13856 10.978098-1.557329 16.510151-0.187371 2.470635-0.420817 4.928984-0.564161 7.411906-0.458701 7.949446-0.752556 15.942918-0.752556 24.006015v209.756219h0.84061c3.168925-33.49948 15.379781-64.332763 34.118931-90.119314V512c0-7.473339 0.280545-14.880125 0.710576-22.24698 0.132081-2.273025 0.343002-4.522501 0.516039-6.785288a376.76625 376.76625 0 0 1 2.416369-22.785544 374.400051 374.400051 0 0 1 2.527973-15.718688c0.354264-1.948454 0.660406-3.91329 1.044363-5.851505 1.410914-7.125218 2.987697-14.189003 4.795879-21.162685 0.140272-0.543683 0.315357-1.074056 0.4587-1.615691a373.010639 373.010639 0 0 1 5.590414-19.030957c0.610236-1.89214 1.269618-3.758683 1.907499-5.637512a375.837586 375.837586 0 0 1 5.452189-15.016303c0.727982-1.874734 1.453917-3.748444 2.210568-5.60782a374.566945 374.566945 0 0 1 7.102693-16.327899c0.478154-1.032076 0.918425-2.082583 1.40477-3.108516a374.704145 374.704145 0 0 1 10.017694-19.626858c0.132081-0.240613 0.277473-0.473035 0.410578-0.713648 3.310221-6.000992 6.80679-11.881165 10.43032-17.676356 0.767914-1.226615 1.559377-2.432752 2.340602-3.649127a374.890492 374.890492 0 0 1 9.9665-14.759307c0.768938-1.082247 1.527637-2.171661 2.308861-3.245717a377.676484 377.676484 0 0 1 42.883389-49.389156c0.690099-0.667573 1.389412-1.323884 2.084631-1.987361a377.57 377.57 0 0 1 14.636441-13.249076c0.547779-0.469963 1.084295-0.949142 1.634121-1.416034a377.178876 377.178876 0 0 1 35.807317-26.923065l-25.186555-25.186555c-6.340922 4.35868-12.529285 8.920089-18.607068 13.618699zM136.455245 739.234966c0 35.567728 12.616315 68.100661 33.466716 93.655814 4.254244 5.213624 8.743981 10.228614 13.65863 14.818693 22.553122 21.068488 51.68266 35.19401 83.971907 38.985457v-294.919929c-73.804726 8.665142-131.097253 71.326923-131.097253 147.459965z m722.142224-88.795431c-23.807382-31.831571-60.098997-53.790839-101.613451-58.664534v294.920953a147.856208 147.856208 0 0 0 63.10922-22.706705c21.583503-13.94839 39.237333-33.386853 51.175836-56.277857 10.688339-20.496136 16.812197-43.75062 16.812197-68.475402 0-13.353512-1.85528-26.255491-5.160382-38.562593-4.940247-18.390004-13.230646-35.401859-24.32342-50.233862z m63.689763-162.446574c-0.143344-2.482922-0.37679-4.941271-0.564161-7.411906-0.419793-5.532052-0.921497-11.041579-1.558353-16.510151a403.949382 403.949382 0 0 0-3.585647-24.296799c-0.42696-2.404083-0.819108-4.821476-1.288048-7.212248a408.178028 408.178028 0 0 0-4.644343-20.880093c-0.144368-0.5744-0.253924-1.16211-0.40034-1.735486-1.94231-7.589038-4.127282-15.079783-6.485289-22.493737-0.573376-1.802038-1.218424-3.572336-1.815349-5.364135a408.36028 408.36028 0 0 0-5.914985-16.609468 390.857984 390.857984 0 0 0-2.515687-6.378805 407.268818 407.268818 0 0 0-6.731022-15.784216c-0.82218-1.822516-1.622858-3.656294-2.470635-5.4655-3.094181-6.592798-6.325564-13.108804-9.753532-19.50604-0.139248-0.260067-0.264162-0.529349-0.404434-0.789415a410.948662 410.948662 0 0 0-11.942599-20.675317c-0.442318-0.717744-0.918425-1.412962-1.364839-2.128657a411.765722 411.765722 0 0 0-11.308813-17.125506c-0.928664-1.334123-1.879853-2.649815-2.823876-3.971651-3.685987-5.160382-7.484602-10.233734-11.399939-15.212888-0.885661-1.127298-1.759035-2.26381-2.656983-3.38087a413.436703 413.436703 0 0 0-48.544451-50.8871c-0.802726-0.709553-1.62081-1.400675-2.428656-2.104085a414.141136 414.141136 0 0 0-15.811861-13.080135c-0.885661-0.696242-1.766202-1.398627-2.656982-2.087702-6.077783-4.69861-12.266146-9.260019-18.607068-13.617675l-25.185531 25.185531a377.178876 377.178876 0 0 1 35.807317 26.923065c0.548803 0.466892 1.087366 0.94607 1.634121 1.416034a377.491161 377.491161 0 0 1 14.636441 13.249076c0.695218 0.662454 1.394532 1.319788 2.08463 1.987361a377.601741 377.601741 0 0 1 42.882366 49.389156c0.781225 1.074056 1.5389 2.162446 2.308861 3.245717a376.021886 376.021886 0 0 1 9.9665 14.759307c0.781225 1.216376 1.572688 2.423537 2.340602 3.649127 3.622506 5.795191 7.120099 11.67434 10.430319 17.676356 0.133105 0.240613 0.278497 0.473035 0.410578 0.713648a374.704145 374.704145 0 0 1 10.017694 19.626858c0.487369 1.025933 0.926616 2.077463 1.404771 3.108516a372.250916 372.250916 0 0 1 7.102693 16.327899c0.757675 1.859376 1.482586 3.733086 2.211592 5.60782a372.670709 372.670709 0 0 1 5.452189 15.016303c0.637881 1.87883 1.298287 3.745373 1.907499 5.637512a373.324972 373.324972 0 0 1 5.591437 19.030957c0.143344 0.542659 0.318428 1.072008 0.459725 1.615691 1.807158 6.973683 3.384965 14.037468 4.794855 21.162685 0.384981 1.938215 0.691123 3.903051 1.045387 5.851505a374.130769 374.130769 0 0 1 2.527973 15.718688 376.76625 376.76625 0 0 1 2.416369 22.785544c0.173037 2.261763 0.382933 4.512263 0.516038 6.785288 0.430032 7.366855 0.710576 14.773641 0.710577 22.24698v119.636905c18.739149 25.785528 30.948982 56.619835 34.11893 90.119314h0.84061V512c-0.004096-8.064121-0.297951-16.057594-0.756651-24.007039z" fill="#FFFFFF" p-id="1629"></path><path d="M319.991809 555.699426c-9.654215 0-17.47977 7.825556-17.47977 17.47977V905.291759c0 9.654215 7.825556 17.47977 17.47977 17.479771 9.653191 0 17.47977-7.825556 17.47977-17.479771V573.179196c0-9.654215-7.825556-17.47977-17.47977-17.47977z m384.552898 0c-9.654215 0-17.47977 7.825556-17.47977 17.47977V905.291759c0 9.654215 7.826579 17.47977 17.47977 17.479771 9.653191 0 17.47977-7.825556 17.47977-17.479771V573.179196c0-9.654215-7.826579-17.47977-17.47977-17.47977z" fill="#EE6A56" p-id="1630"></path><path d="M512.268258 101.227447c-73.401315 0-142.24634 19.344265-201.87947 53.075143l25.72 25.719999c52.550914-27.944902 112.489161-43.835602 176.15947-43.835602 63.670309 0 123.608556 15.8907 176.160494 43.835602l25.719999-25.719999c-59.634153-33.729854-128.479178-53.075144-201.880493-53.075143z" fill="#86AEDD" p-id="1631"></path><path d="M302.512039 616.877598h34.95954v-17.479771h-34.95954v17.479771z m0 52.438287h34.95954v-17.479771h-34.95954v17.479771z m0 52.440334h34.95954v-17.47977h-34.95954v17.47977z m0 52.438287h34.95954v-17.47977h-34.95954v17.47977z m0 52.439311h34.95954v-17.47977h-34.95954v17.47977z m0 52.438287h34.95954V861.592334h-34.95954v17.47977z m384.551874-279.674277v17.479771h34.95954v-17.479771h-34.95954z m0 69.918058h34.95954v-17.479771h-34.95954v17.479771z m0 52.440334h34.95954v-17.47977h-34.95954v17.47977z m0 52.438287h34.95954v-17.47977h-34.95954v17.47977z m0 52.439311h34.95954v-17.47977h-34.95954v17.47977z m0 52.438287h34.95954V861.592334h-34.95954v17.47977z" fill="#313E4B" p-id="1632"></path><path d="M512.268258 66.26893c-246.170701 0-445.73107 199.561393-445.73107 445.73107v227.23599c0 9.654215 7.826579 17.47977 17.47977 17.47977h18.305022c8.346713 88.340826 79.308109 158.448302 168.028797 165.471131 7.033068 20.669173 26.593374 35.545203 49.641032 35.545203 28.96162 0 52.439311-23.47769 52.439311-52.439311V573.179196c0-28.96162-23.47769-52.439311-52.439311-52.439311-23.047659 0-42.607964 14.87603-49.641032 35.545203-37.205945 2.944694-71.284944 16.989329-98.935991 38.814469v-83.099557c0-188.24746 152.604988-340.852449 340.853472-340.852449s340.853472 152.604988 340.853472 340.852449v83.099557c-27.651047-21.826163-61.730046-35.869775-98.935991-38.814469-7.033068-20.669173-26.593374-35.545203-49.641032-35.545203-28.96162 0-52.439311 23.47769-52.439311 52.439311V905.291759c0 28.96162 23.47769 52.439311 52.439311 52.439311 23.047659 0 42.607964-14.87603 49.641032-35.545203 88.719663-7.022829 159.68106-77.130305 168.028797-165.471131h18.305022c9.654215 0 17.47977-7.825556 17.47977-17.47977V512c0-246.169677-199.561393-445.73107-445.73107-445.73107zM302.512039 573.179196c0-9.654215 7.825556-17.47977 17.47977-17.47977 9.653191 0 17.47977 7.825556 17.47977 17.47977V905.291759c0 9.654215-7.826579 17.47977-17.47977 17.479771-9.654215 0-17.47977-7.825556-17.47977-17.479771V573.179196zM722.024477 905.291759c0 9.654215-7.826579 17.47977-17.47977 17.479771-9.654215 0-17.47977-7.825556-17.47977-17.479771V573.179196c0-9.654215 7.826579-17.47977 17.47977-17.47977 9.653191 0 17.47977 7.825556 17.47977 17.47977V905.291759zM267.553522 591.686947v295.097061c-73.818036-8.652855-131.097253-71.405763-131.097253-147.548018s57.279217-138.896188 131.097253-147.549043z m-131.098277-79.686947V631.484346c-18.763722 25.828531-30.96434 56.733486-34.133265 90.271873h-0.826276V512c0-140.609148 70.653207-264.71224 178.390517-338.759627l25.181435 25.18246c-101.603212 67.27029-168.612411 182.596637-168.612411 313.577167z m552.017534-332.022461c-52.55501-27.948998-112.529093-43.790551-176.205545-43.790552s-123.650535 15.84053-176.205545 43.790552l-25.749692-25.748669c59.638249-33.737021 128.545731-52.999376 201.954213-52.999376s142.315965 19.262355 201.954213 52.999376l-25.747644 25.748669z m68.510215 706.806469V591.686947c73.818036 8.652855 131.097253 71.405763 131.097253 147.548019s-57.279217 138.896188-131.097253 147.549042z m166.056794-374.784008v209.756219h-0.826276c-3.168925-33.538388-15.369543-64.442318-34.132241-90.270849V512c0-130.979506-67.009199-246.305854-168.612412-313.577167l25.181436-25.18246c107.736286 74.046363 178.389492 198.149455 178.389493 338.759627z" fill="" p-id="1633"></path></svg>