<?xml version="1.0" standalone="no"?><!DOCTYPE svg PUBLIC "-//W3C//DTD SVG 1.1//EN" "http://www.w3.org/Graphics/SVG/1.1/DTD/svg11.dtd"><svg t="1538277745717" class="icon" style="" viewBox="0 0 1024 1024" version="1.1" xmlns="http://www.w3.org/2000/svg" p-id="1045" xmlns:xlink="http://www.w3.org/1999/xlink" width="200" height="200"><defs><style type="text/css"></style></defs><path d="M736.896 221.568a351.146667 351.146667 0 0 1 96.426667 201.642667l-40.021334-31.104a41.258667 41.258667 0 0 0-58.88 8.533333 44.16 44.16 0 0 0 8.277334 60.586667l107.904 83.797333a41.130667 41.130667 0 0 0 53.546666-2.474667l104.96-97.962666a44.202667 44.202667 0 0 0 2.944-61.141334 41.216 41.216 0 0 0-59.392-2.986666l-35.712 33.28a438.613333 438.613333 0 0 0-120.576-253.354667C631.850667-9.002667 365.525333-9.856 201.472 159.061333c-30.677333 31.573333-55.637333 66.944-74.837333 104.661334a43.946667 43.946667 0 0 0 17.706666 58.453333 41.429333 41.429333 0 0 0 56.746667-18.304 343.381333 343.381333 0 0 1 59.861333-83.626667c130.944-134.826667 344.021333-134.485333 475.946667 1.322667zM287.104 759.765333a351.146667 351.146667 0 0 1-96.426667-201.642666l40.021334 31.104a41.258667 41.258667 0 0 0 58.88-8.533334 44.16 44.16 0 0 0-8.277334-60.586666l-107.904-83.797334a41.130667 41.130667 0 0 0-53.546666 2.474667L14.933333 536.746667a44.202667 44.202667 0 0 0-2.944 61.141333 41.216 41.216 0 0 0 59.392 2.986667l35.712-33.28a438.613333 438.613333 0 0 0 120.576 253.354666c164.522667 169.386667 430.848 170.24 594.901334 1.322667 30.72-31.573333 55.637333-66.944 74.837333-104.661333a43.946667 43.946667 0 0 0-17.706667-58.453334 41.429333 41.429333 0 0 0-56.746666 18.304 343.381333 343.381333 0 0 1-59.818667 83.626667c-130.986667 134.826667-344.064 134.485333-475.989333-1.322667z" fill="#666666" p-id="1046"></path></svg>