<?xml version="1.0" standalone="no"?><!DOCTYPE svg PUBLIC "-//W3C//DTD SVG 1.1//EN" "http://www.w3.org/Graphics/SVG/1.1/DTD/svg11.dtd"><svg t="1538278537285" class="icon" style="" viewBox="0 0 1024 1024" version="1.1" xmlns="http://www.w3.org/2000/svg" p-id="6511" xmlns:xlink="http://www.w3.org/1999/xlink" width="32" height="32"><defs><style type="text/css"></style></defs><path d="M512.352242 256.176121 384.264182 256.176121l0 128.088061L256.176121 384.264182l0 128.088061 128.088061 0 0 128.088061 128.088061 0L512.352242 512.352242l128.088061 0L640.440303 384.264182 512.352242 384.264182 512.352242 256.176121zM1000.944149 889.443492 815.920946 704.484333C866.643818 631.794359 896.616424 543.605729 896.616424 448.308212c0-247.594221-200.713991-448.308212-448.308212-448.308212C200.713991 0 0 200.713991 0 448.308212c0 247.594221 200.713991 448.308212 448.308212 448.308212 95.297517 0 183.486147-29.972606 256.176121-80.695478l184.959159 184.959159c30.805179 30.805179 80.695478 30.805179 111.500657 0S1031.685284 920.248671 1000.944149 889.443492zM448.308212 768.528363c-176.825568 0-320.220151-143.394584-320.220151-320.220151 0-176.825568 143.394584-320.220151 320.220151-320.220151s320.220151 143.394584 320.220151 320.220151C768.528363 625.133779 625.133779 768.528363 448.308212 768.528363z" p-id="6512" fill="#666666"></path></svg>