<?xml version="1.0" standalone="no"?><!DOCTYPE svg PUBLIC "-//W3C//DTD SVG 1.1//EN" "http://www.w3.org/Graphics/SVG/1.1/DTD/svg11.dtd"><svg t="1511505873704" class="icon" style="" viewBox="0 0 1820 1024" version="1.1" xmlns="http://www.w3.org/2000/svg" p-id="3212" xmlns:xlink="http://www.w3.org/1999/xlink" width="355.46875" height="200"><defs><style type="text/css"></style></defs><path d="M1756.9536 342.4768a36.608 36.608 0 0 0-36.6336-36.6336c-20.2752 0-36.864 16.384-36.864 36.6336V419.84c0 20.2496 16.5888 36.864 36.864 36.864 20.2496 0 36.6336-16.6144 36.6336-36.864v-77.3632z m-202.0608-101.2736a36.864 36.864 0 0 0-37.3504-36.8384c-20.2496 0-36.608 16.4864-36.608 36.8384V419.84c0 20.2496 16.3584 36.864 36.608 36.864 20.9408 0 37.3504-16.6144 37.3504-36.864V241.2032zM1352.1408 102.4a36.736 36.736 0 1 0-73.4976 0v390.7072c0 20.48 16.5888 36.864 36.8384 36.864s36.6592-16.384 36.6592-36.864V102.4z m-202.5472 138.8032a36.736 36.736 0 1 0-73.4976 0V419.84c0 20.2496 16.4096 36.864 36.6592 36.864 20.48 0 36.8384-16.6144 36.8384-36.864V241.2032z m-202.496 101.2736c0-20.2752-16.6144-36.6336-36.864-36.6336s-36.864 16.384-36.864 36.6336V419.84c0 20.2496 16.6144 36.864 36.864 36.864s36.864-16.6144 36.864-36.864v-77.3632z m-202.3168-101.2736a36.9664 36.9664 0 1 0-73.9584 0V419.84a37.0176 37.0176 0 0 0 73.9584 0V241.2032zM542.2592 102.4c0-20.2752-16.6144-36.7616-36.864-36.7616-20.48 0-36.864 16.4864-36.864 36.7616v390.7072c0 20.48 16.384 36.864 36.864 36.864 20.2496 0 36.864-16.384 36.864-36.864V102.4z m-202.5216 138.8032c0-20.3776-16.6144-36.8384-36.864-36.8384-20.48 0-36.864 16.4864-36.864 36.8384V419.84a36.864 36.864 0 1 0 73.728 0V241.2032z m-202.624 101.2736c0-20.2752-16.5376-36.6336-36.8384-36.6336-20.3264 0-36.8896 16.384-36.8896 36.6336V419.84c0 20.2496 16.5632 36.864 36.8896 36.864 20.3008 0 36.8384-16.6144 36.8384-36.864v-77.3632z m761.2672 383.2064c-1.1264-0.2304-32.5376-8.8832-58.24-8.8832-29.5936 0-45.7472 9.8048-45.7472 24.1152 0 17.7408 21.8368 24.1152 33.8944 27.9808l20.48 6.4c48.2304 15.4624 70.3232 48.4608 70.3232 84.1728 0 73.984-65.0752 98.7648-121.984 98.7648-39.3728 0-76.4672-7.04-80.1024-7.9872V882.432c6.6048 1.8432 37.7856 11.1616 70.0928 11.1616 36.864 0 53.9392-10.9056 53.9392-27.52 0-15.0272-14.5664-23.68-32.9984-29.3376-4.5568-1.6128-11.3664-3.6352-15.9232-5.2224-41.4208-13.0048-75.776-37.3504-75.776-86.016 0-55.0656 41.1904-91.9296 109.6704-91.9296 35.9424 0 70.0928 8.6528 72.3712 9.3184v62.7968z m550.6816 2.9696c-44.16 0-76.672 34.5856-76.672 77.3376 0 42.8032 32.5376 77.3632 76.672 77.3632s76.928-34.5856 76.928-77.3632c0-42.7776-32.768-77.3376-76.928-77.3376m155.4432 77.3376c0 84.1984-64.8448 152.2432-155.4176 152.2432s-155.4176-68.0448-155.4176-152.2432 64.8448-152.448 155.4176-152.448 155.4176 68.2496 155.4176 152.448M440.32 743.1936c-2.9696-1.6128-26.8544-15.6928-62.3616-15.6928-48.256 0-81.4848 33.4592-81.4848 78.4896 0 43.6992 31.872 78.4896 81.4848 78.4896 34.816 0 59.1616-13.8752 62.3616-15.6928v78.9504c-9.344 2.7392-34.5856 10.496-67.8144 10.496-83.5072 0-156.6208-57.6-156.6208-152.2432 0-88.0384 66.2784-152.448 156.6208-152.448 35.0464 0 60.7488 8.3968 67.8144 10.7008v78.9504z m775.0656 0c-2.9696-1.6128-26.8544-15.6928-62.3616-15.6928-48.0256 0-81.2288 33.4592-81.2288 78.4896 0 43.6992 31.8464 78.4896 81.2288 78.4896 34.816 0 59.1872-13.8752 62.3616-15.6928v78.9504c-9.088 2.7392-34.5856 10.496-67.584 10.496-83.5328 0-156.8-57.6-156.8-152.2432 0-88.0384 66.2272-152.448 156.8-152.448 34.7904 0 60.7488 8.3968 67.584 10.7008v78.9504z m-598.7072 209.8176h-74.1888V658.7648h74.1888v294.2464z" fill="#66ccff" p-id="3213"></path></svg>